G04 #@! TF.GenerationSoftware,KiCad,Pcbnew,9.0.2*
G04 #@! TF.CreationDate,2025-07-14T22:28:57-04:00*
G04 #@! TF.ProjectId,boitier_arme,626f6974-6965-4725-9f61-726d652e6b69,rev?*
G04 #@! TF.SameCoordinates,Original*
G04 #@! TF.FileFunction,Copper,L1,Top*
G04 #@! TF.FilePolarity,Positive*
%FSLAX46Y46*%
G04 Gerber Fmt 4.6, Leading zero omitted, Abs format (unit mm)*
G04 Created by KiCad (PCBNEW 9.0.2) date 2025-07-14 22:28:57*
%MOMM*%
%LPD*%
G01*
G04 APERTURE LIST*
G04 Aperture macros list*
%AMRoundRect*
0 Rectangle with rounded corners*
0 $1 Rounding radius*
0 $2 $3 $4 $5 $6 $7 $8 $9 X,Y pos of 4 corners*
0 Add a 4 corners polygon primitive as box body*
4,1,4,$2,$3,$4,$5,$6,$7,$8,$9,$2,$3,0*
0 Add four circle primitives for the rounded corners*
1,1,$1+$1,$2,$3*
1,1,$1+$1,$4,$5*
1,1,$1+$1,$6,$7*
1,1,$1+$1,$8,$9*
0 Add four rect primitives between the rounded corners*
20,1,$1+$1,$2,$3,$4,$5,0*
20,1,$1+$1,$4,$5,$6,$7,0*
20,1,$1+$1,$6,$7,$8,$9,0*
20,1,$1+$1,$8,$9,$2,$3,0*%
G04 Aperture macros list end*
G04 #@! TA.AperFunction,ComponentPad*
%ADD10C,1.016000*%
G04 #@! TD*
G04 #@! TA.AperFunction,ComponentPad*
%ADD11C,1.400000*%
G04 #@! TD*
G04 #@! TA.AperFunction,ComponentPad*
%ADD12RoundRect,0.250000X0.750000X-0.600000X0.750000X0.600000X-0.750000X0.600000X-0.750000X-0.600000X0*%
G04 #@! TD*
G04 #@! TA.AperFunction,ComponentPad*
%ADD13O,2.000000X1.700000*%
G04 #@! TD*
G04 #@! TA.AperFunction,ComponentPad*
%ADD14R,1.800000X1.800000*%
G04 #@! TD*
G04 #@! TA.AperFunction,ComponentPad*
%ADD15C,1.800000*%
G04 #@! TD*
G04 #@! TA.AperFunction,SMDPad,CuDef*
%ADD16RoundRect,0.250000X0.375000X1.000000X-0.375000X1.000000X-0.375000X-1.000000X0.375000X-1.000000X0*%
G04 #@! TD*
G04 #@! TA.AperFunction,SMDPad,CuDef*
%ADD17RoundRect,0.500000X-0.500000X0.875000X-0.500000X-0.875000X0.500000X-0.875000X0.500000X0.875000X0*%
G04 #@! TD*
G04 #@! TA.AperFunction,SMDPad,CuDef*
%ADD18RoundRect,0.275000X0.275000X-0.975000X0.275000X0.975000X-0.275000X0.975000X-0.275000X-0.975000X0*%
G04 #@! TD*
G04 #@! TA.AperFunction,SMDPad,CuDef*
%ADD19RoundRect,0.275000X0.975000X0.275000X-0.975000X0.275000X-0.975000X-0.275000X0.975000X-0.275000X0*%
G04 #@! TD*
G04 #@! TA.AperFunction,SMDPad,CuDef*
%ADD20C,1.700000*%
G04 #@! TD*
G04 #@! TA.AperFunction,ViaPad*
%ADD21C,0.600000*%
G04 #@! TD*
G04 #@! TA.AperFunction,Conductor*
%ADD22C,0.200000*%
G04 #@! TD*
G04 APERTURE END LIST*
D10*
G04 #@! TO.P,J2,1,1*
G04 #@! TO.N,Net-(J2-Pad1)*
X142490000Y-84120000D03*
G04 #@! TO.P,J2,2,2*
G04 #@! TO.N,GND*
X142490000Y-82870000D03*
G04 #@! TD*
D11*
G04 #@! TO.P,R5,1*
G04 #@! TO.N,/BAT_level*
X149780000Y-86500000D03*
G04 #@! TO.P,R5,2*
G04 #@! TO.N,GND*
X152320000Y-86500000D03*
G04 #@! TD*
G04 #@! TO.P,R4,1*
G04 #@! TO.N,/BAT+*
X152220000Y-80000000D03*
G04 #@! TO.P,R4,2*
G04 #@! TO.N,/BAT_level*
X149680000Y-80000000D03*
G04 #@! TD*
G04 #@! TO.P,R3,1*
G04 #@! TO.N,/BAT+*
X152220000Y-83500000D03*
G04 #@! TO.P,R3,2*
G04 #@! TO.N,Net-(D2-A)*
X149680000Y-83500000D03*
G04 #@! TD*
D12*
G04 #@! TO.P,J1,1,Pin_1*
G04 #@! TO.N,GND*
X159150000Y-84750000D03*
D13*
G04 #@! TO.P,J1,2,Pin_2*
G04 #@! TO.N,/Push*
X159150000Y-82250000D03*
G04 #@! TD*
D14*
G04 #@! TO.P,D2,1,K*
G04 #@! TO.N,GND*
X140740000Y-75830000D03*
D15*
G04 #@! TO.P,D2,2,A*
G04 #@! TO.N,Net-(D2-A)*
X143280000Y-75830000D03*
G04 #@! TD*
D16*
G04 #@! TO.P,S1,1*
G04 #@! TO.N,unconnected-(S1-Pad1)*
X153150000Y-76010000D03*
G04 #@! TO.P,S1,2*
G04 #@! TO.N,/BAT+*
X150650000Y-76010000D03*
G04 #@! TO.P,S1,3*
G04 #@! TO.N,Net-(J2-Pad1)*
X148150000Y-76010000D03*
G04 #@! TD*
D17*
G04 #@! TO.P,U1,1,P0.02_A0_D0*
G04 #@! TO.N,unconnected-(U1-P0.02_A0_D0-Pad1)*
X158000000Y-89790000D03*
G04 #@! TO.P,U1,2,P0.03_A1_D1*
G04 #@! TO.N,/BAT_level*
X155460000Y-89790000D03*
G04 #@! TO.P,U1,3,P0.28_A2_D2*
G04 #@! TO.N,unconnected-(U1-P0.28_A2_D2-Pad3)*
X152920000Y-89790000D03*
G04 #@! TO.P,U1,4,P0.29_A3_D3*
G04 #@! TO.N,unconnected-(U1-P0.29_A3_D3-Pad4)*
X150380000Y-89790000D03*
G04 #@! TO.P,U1,5,P0.04_A4_D4_SDA*
G04 #@! TO.N,unconnected-(U1-P0.04_A4_D4_SDA-Pad5)*
X147840000Y-89790000D03*
G04 #@! TO.P,U1,6,P0.05_A5_D5_SCL*
G04 #@! TO.N,unconnected-(U1-P0.05_A5_D5_SCL-Pad6)*
X145300000Y-89790000D03*
G04 #@! TO.P,U1,7,P1.11_D6_TX*
G04 #@! TO.N,/Push*
X142760000Y-89790000D03*
G04 #@! TO.P,U1,8,P1.12_D7_RX*
G04 #@! TO.N,unconnected-(U1-P1.12_D7_RX-Pad8)*
X142760000Y-105955000D03*
G04 #@! TO.P,U1,9,P1.13_D8_SCK*
G04 #@! TO.N,unconnected-(U1-P1.13_D8_SCK-Pad9)*
X145300000Y-105955000D03*
G04 #@! TO.P,U1,10,P1.14_D9_MISO*
G04 #@! TO.N,unconnected-(U1-P1.14_D9_MISO-Pad10)*
X147840000Y-105955000D03*
G04 #@! TO.P,U1,11,P1.15_D10_MOSI*
G04 #@! TO.N,unconnected-(U1-P1.15_D10_MOSI-Pad11)*
X150380000Y-105955000D03*
G04 #@! TO.P,U1,12,3V3*
G04 #@! TO.N,unconnected-(U1-3V3-Pad12)*
X152920000Y-105955000D03*
G04 #@! TO.P,U1,13,GND*
G04 #@! TO.N,GND*
X155460000Y-105955000D03*
G04 #@! TO.P,U1,14,5V*
G04 #@! TO.N,unconnected-(U1-5V-Pad14)*
X158000000Y-105955000D03*
D18*
G04 #@! TO.P,U1,15,BAT*
G04 #@! TO.N,/BAT+*
X150693500Y-93400000D03*
G04 #@! TO.P,U1,16,GND*
G04 #@! TO.N,GND*
X152598500Y-93400000D03*
D19*
G04 #@! TO.P,U1,17,NFC1*
G04 #@! TO.N,unconnected-(U1-NFC1-Pad17)*
X141143100Y-101655000D03*
G04 #@! TO.P,U1,18,NFC2*
G04 #@! TO.N,unconnected-(U1-NFC2-Pad18)*
X141143100Y-103560000D03*
D20*
G04 #@! TO.P,U1,19,PA31_SWDIO*
G04 #@! TO.N,unconnected-(U1-PA31_SWDIO-Pad19)*
X158948500Y-96575000D03*
G04 #@! TO.P,U1,20,PA30_SWCLK*
G04 #@! TO.N,unconnected-(U1-PA30_SWCLK-Pad20)*
X158948500Y-99115000D03*
G04 #@! TO.P,U1,21,RESET*
G04 #@! TO.N,unconnected-(U1-RESET-Pad21)*
X156408500Y-96575000D03*
G04 #@! TO.P,U1,22,GND*
G04 #@! TO.N,GND*
X156408500Y-99115000D03*
G04 #@! TD*
D21*
G04 #@! TO.N,/BAT+*
X147500000Y-93500000D03*
G04 #@! TD*
D22*
G04 #@! TO.N,/Push*
X147095000Y-85455000D02*
X155945000Y-85455000D01*
X142760000Y-89790000D02*
X147095000Y-85455000D01*
X155945000Y-85455000D02*
X159150000Y-82250000D01*
G04 #@! TO.N,/BAT+*
X152220000Y-80000000D02*
X152510000Y-80000000D01*
X152220000Y-77580000D02*
X150650000Y-76010000D01*
X147510000Y-93510000D02*
X147500000Y-93500000D01*
X152220000Y-80000000D02*
X152220000Y-83500000D01*
X150418500Y-93510000D02*
X147510000Y-93510000D01*
X150693500Y-93785000D02*
X150418500Y-93510000D01*
X150650000Y-76730000D02*
X150650000Y-76010000D01*
X152220000Y-80000000D02*
X152220000Y-77580000D01*
G04 #@! TO.N,/BAT_level*
X149780000Y-86500000D02*
X150781000Y-87501000D01*
X150781000Y-87501000D02*
X153171000Y-87501000D01*
X153171000Y-87501000D02*
X155460000Y-89790000D01*
G04 #@! TO.N,Net-(J2-Pad1)*
X148150000Y-78460000D02*
X148150000Y-76010000D01*
X142490000Y-84120000D02*
X148150000Y-78460000D01*
G04 #@! TD*
G04 #@! TA.AperFunction,Conductor*
G04 #@! TO.N,GND*
G36*
X146521241Y-72930185D02*
G01*
X146566996Y-72982989D01*
X146576940Y-73052147D01*
X146575819Y-73058692D01*
X146549500Y-73191004D01*
X146549500Y-73191007D01*
X146549500Y-73328993D01*
X146549500Y-73328995D01*
X146549499Y-73328995D01*
X146576418Y-73464322D01*
X146576421Y-73464332D01*
X146629221Y-73591804D01*
X146629228Y-73591817D01*
X146705885Y-73706541D01*
X146705888Y-73706545D01*
X146803454Y-73804111D01*
X146803458Y-73804114D01*
X146918182Y-73880771D01*
X146918195Y-73880778D01*
X147045667Y-73933578D01*
X147045672Y-73933580D01*
X147045676Y-73933580D01*
X147045677Y-73933581D01*
X147181004Y-73960500D01*
X147181007Y-73960500D01*
X147318995Y-73960500D01*
X147410041Y-73942389D01*
X147454328Y-73933580D01*
X147581811Y-73880775D01*
X147696542Y-73804114D01*
X147794114Y-73706542D01*
X147870775Y-73591811D01*
X147923580Y-73464328D01*
X147932572Y-73419123D01*
X147950500Y-73328995D01*
X147950500Y-73191004D01*
X147924181Y-73058692D01*
X147930408Y-72989100D01*
X147973271Y-72933923D01*
X148039161Y-72910678D01*
X148045798Y-72910500D01*
X153254202Y-72910500D01*
X153321241Y-72930185D01*
X153366996Y-72982989D01*
X153376940Y-73052147D01*
X153375819Y-73058692D01*
X153349500Y-73191004D01*
X153349500Y-73191007D01*
X153349500Y-73328993D01*
X153349500Y-73328995D01*
X153349499Y-73328995D01*
X153376418Y-73464322D01*
X153376421Y-73464332D01*
X153429221Y-73591804D01*
X153429228Y-73591817D01*
X153505885Y-73706541D01*
X153505888Y-73706545D01*
X153603454Y-73804111D01*
X153603458Y-73804114D01*
X153718182Y-73880771D01*
X153718195Y-73880778D01*
X153845667Y-73933578D01*
X153845672Y-73933580D01*
X153845676Y-73933580D01*
X153845677Y-73933581D01*
X153981004Y-73960500D01*
X153981007Y-73960500D01*
X154118995Y-73960500D01*
X154210041Y-73942389D01*
X154254328Y-73933580D01*
X154381811Y-73880775D01*
X154496542Y-73804114D01*
X154594114Y-73706542D01*
X154670775Y-73591811D01*
X154723580Y-73464328D01*
X154732572Y-73419123D01*
X154750500Y-73328995D01*
X154750500Y-73191004D01*
X154724181Y-73058692D01*
X154730408Y-72989100D01*
X154773271Y-72933923D01*
X154839161Y-72910678D01*
X154845798Y-72910500D01*
X156588498Y-72910500D01*
X156655537Y-72930185D01*
X156701292Y-72982989D01*
X156711236Y-73052147D01*
X156682211Y-73115703D01*
X156663985Y-73132876D01*
X156625990Y-73162030D01*
X156422030Y-73365990D01*
X156422024Y-73365997D01*
X156246431Y-73594835D01*
X156246420Y-73594851D01*
X156102199Y-73844647D01*
X156102191Y-73844663D01*
X155991814Y-74111139D01*
X155991810Y-74111152D01*
X155991809Y-74111155D01*
X155934460Y-74325187D01*
X155917152Y-74389780D01*
X155917149Y-74389793D01*
X155879501Y-74675761D01*
X155879500Y-74675778D01*
X155879500Y-74964221D01*
X155879501Y-74964238D01*
X155917149Y-75250206D01*
X155917150Y-75250211D01*
X155917151Y-75250217D01*
X155984275Y-75500726D01*
X155991809Y-75528844D01*
X155991814Y-75528860D01*
X156102191Y-75795336D01*
X156102199Y-75795352D01*
X156229477Y-76015802D01*
X156246424Y-76045155D01*
X156246431Y-76045164D01*
X156422024Y-76274002D01*
X156422030Y-76274009D01*
X156625990Y-76477969D01*
X156625996Y-76477974D01*
X156854844Y-76653575D01*
X156854851Y-76653579D01*
X157104647Y-76797800D01*
X157104663Y-76797808D01*
X157371139Y-76908185D01*
X157371145Y-76908186D01*
X157371155Y-76908191D01*
X157649783Y-76982849D01*
X157935772Y-77020500D01*
X157935779Y-77020500D01*
X158224221Y-77020500D01*
X158224228Y-77020500D01*
X158510217Y-76982849D01*
X158788845Y-76908191D01*
X158788857Y-76908185D01*
X158788860Y-76908185D01*
X159055336Y-76797808D01*
X159055339Y-76797806D01*
X159055345Y-76797804D01*
X159305156Y-76653575D01*
X159534004Y-76477974D01*
X159737974Y-76274004D01*
X159913575Y-76045156D01*
X160057804Y-75795345D01*
X160115396Y-75656306D01*
X160168185Y-75528860D01*
X160168185Y-75528857D01*
X160168191Y-75528845D01*
X160175725Y-75500724D01*
X160212090Y-75441065D01*
X160274937Y-75410536D01*
X160344312Y-75418831D01*
X160398190Y-75463316D01*
X160419465Y-75529868D01*
X160419500Y-75532819D01*
X160419500Y-81160242D01*
X160399815Y-81227281D01*
X160347011Y-81273036D01*
X160277853Y-81282980D01*
X160214297Y-81253955D01*
X160207819Y-81247923D01*
X160179786Y-81219890D01*
X160007820Y-81094951D01*
X159818414Y-80998444D01*
X159818413Y-80998443D01*
X159818412Y-80998443D01*
X159616243Y-80932754D01*
X159616241Y-80932753D01*
X159616240Y-80932753D01*
X159454957Y-80907208D01*
X159406287Y-80899500D01*
X158893713Y-80899500D01*
X158845042Y-80907208D01*
X158683760Y-80932753D01*
X158481585Y-80998444D01*
X158292179Y-81094951D01*
X158120213Y-81219890D01*
X157969890Y-81370213D01*
X157844951Y-81542179D01*
X157748444Y-81731585D01*
X157682753Y-81933760D01*
X157649500Y-82143713D01*
X157649500Y-82356286D01*
X157682753Y-82566240D01*
X157733277Y-82721737D01*
X157735272Y-82791578D01*
X157703027Y-82847736D01*
X155732584Y-84818181D01*
X155671261Y-84851666D01*
X155644903Y-84854500D01*
X152719081Y-84854500D01*
X152652042Y-84834815D01*
X152606287Y-84782011D01*
X152596343Y-84712853D01*
X152625368Y-84649297D01*
X152676694Y-84615266D01*
X152676339Y-84614408D01*
X152680736Y-84612586D01*
X152680762Y-84612569D01*
X152680832Y-84612547D01*
X152849199Y-84526760D01*
X153002073Y-84415690D01*
X153135690Y-84282073D01*
X153246760Y-84129199D01*
X153332547Y-83960832D01*
X153390940Y-83781118D01*
X153395184Y-83754323D01*
X153420500Y-83594486D01*
X153420500Y-83405513D01*
X153390940Y-83218881D01*
X153332545Y-83039163D01*
X153246759Y-82870800D01*
X153230002Y-82847736D01*
X153135690Y-82717927D01*
X153002073Y-82584310D01*
X152908667Y-82516446D01*
X152871614Y-82489525D01*
X152828948Y-82434194D01*
X152820500Y-82389207D01*
X152820500Y-81110791D01*
X152840185Y-81043752D01*
X152871612Y-81010475D01*
X153002073Y-80915690D01*
X153135690Y-80782073D01*
X153246760Y-80629199D01*
X153332547Y-80460832D01*
X153390940Y-80281118D01*
X153395184Y-80254323D01*
X153420500Y-80094486D01*
X153420500Y-79905513D01*
X153390940Y-79718881D01*
X153332545Y-79539163D01*
X153246759Y-79370800D01*
X153135690Y-79217927D01*
X153002073Y-79084310D01*
X152957649Y-79052034D01*
X152871614Y-78989525D01*
X152828948Y-78934194D01*
X152820500Y-78889207D01*
X152820500Y-77884499D01*
X152840185Y-77817460D01*
X152892989Y-77771705D01*
X152944500Y-77760499D01*
X153575002Y-77760499D01*
X153575008Y-77760499D01*
X153677797Y-77749999D01*
X153844334Y-77694814D01*
X153993656Y-77602712D01*
X154117712Y-77478656D01*
X154209814Y-77329334D01*
X154264999Y-77162797D01*
X154275500Y-77060009D01*
X154275499Y-74959992D01*
X154264999Y-74857203D01*
X154209814Y-74690666D01*
X154117712Y-74541344D01*
X153993656Y-74417288D01*
X153844334Y-74325186D01*
X153677797Y-74270001D01*
X153677795Y-74270000D01*
X153575010Y-74259500D01*
X152724998Y-74259500D01*
X152724980Y-74259501D01*
X152622203Y-74270000D01*
X152622200Y-74270001D01*
X152455668Y-74325185D01*
X152455663Y-74325187D01*
X152306342Y-74417289D01*
X152182289Y-74541342D01*
X152090187Y-74690663D01*
X152090185Y-74690668D01*
X152066630Y-74761752D01*
X152035001Y-74857203D01*
X152035001Y-74857204D01*
X152035000Y-74857204D01*
X152024500Y-74959983D01*
X152024500Y-76235903D01*
X152018261Y-76257148D01*
X152016682Y-76279237D01*
X152008609Y-76290020D01*
X152004815Y-76302942D01*
X151988081Y-76317441D01*
X151974810Y-76335170D01*
X151962189Y-76339877D01*
X151952011Y-76348697D01*
X151930093Y-76351848D01*
X151909346Y-76359587D01*
X151896185Y-76356724D01*
X151882853Y-76358641D01*
X151862709Y-76349441D01*
X151841073Y-76344735D01*
X151823347Y-76331466D01*
X151819297Y-76329616D01*
X151812819Y-76323584D01*
X151811818Y-76322583D01*
X151778333Y-76261260D01*
X151775499Y-76234902D01*
X151775499Y-74959998D01*
X151775498Y-74959981D01*
X151764999Y-74857203D01*
X151764998Y-74857200D01*
X151759569Y-74840816D01*
X151709814Y-74690666D01*
X151617712Y-74541344D01*
X151493656Y-74417288D01*
X151344334Y-74325186D01*
X151177797Y-74270001D01*
X151177795Y-74270000D01*
X151075010Y-74259500D01*
X150224998Y-74259500D01*
X150224980Y-74259501D01*
X150122203Y-74270000D01*
X150122200Y-74270001D01*
X149955668Y-74325185D01*
X149955663Y-74325187D01*
X149806342Y-74417289D01*
X149682289Y-74541342D01*
X149590187Y-74690663D01*
X149590185Y-74690668D01*
X149566630Y-74761752D01*
X149535001Y-74857203D01*
X149535001Y-74857204D01*
X149535000Y-74857204D01*
X149524500Y-74959983D01*
X149524500Y-77060001D01*
X149524501Y-77060018D01*
X149535000Y-77162796D01*
X149535001Y-77162799D01*
X149590185Y-77329331D01*
X149590186Y-77329334D01*
X149682288Y-77478656D01*
X149806344Y-77602712D01*
X149955666Y-77694814D01*
X150122203Y-77749999D01*
X150224991Y-77760500D01*
X151075008Y-77760499D01*
X151075016Y-77760498D01*
X151075019Y-77760498D01*
X151131302Y-77754748D01*
X151177797Y-77749999D01*
X151344334Y-77694814D01*
X151345814Y-77693901D01*
X151348245Y-77692402D01*
X151376782Y-77684593D01*
X151404497Y-77674256D01*
X151410102Y-77675475D01*
X151415637Y-77673961D01*
X151443864Y-77682819D01*
X151472770Y-77689108D01*
X151479173Y-77693901D01*
X151482301Y-77694883D01*
X151501024Y-77710259D01*
X151583181Y-77792416D01*
X151616666Y-77853739D01*
X151619500Y-77880097D01*
X151619500Y-78889207D01*
X151599815Y-78956246D01*
X151568386Y-78989525D01*
X151437925Y-79084311D01*
X151304312Y-79217924D01*
X151304312Y-79217925D01*
X151304310Y-79217927D01*
X151256610Y-79283579D01*
X151193240Y-79370800D01*
X151107454Y-79539163D01*
X151067931Y-79660803D01*
X151028493Y-79718478D01*
X150964134Y-79745676D01*
X150895288Y-79733761D01*
X150843812Y-79686516D01*
X150832069Y-79660803D01*
X150792545Y-79539163D01*
X150706759Y-79370800D01*
X150595690Y-79217927D01*
X150462073Y-79084310D01*
X150309199Y-78973240D01*
X150280500Y-78958617D01*
X150140836Y-78887454D01*
X149961118Y-78829059D01*
X149774486Y-78799500D01*
X149774481Y-78799500D01*
X149585519Y-78799500D01*
X149585514Y-78799500D01*
X149398881Y-78829059D01*
X149219163Y-78887454D01*
X149050800Y-78973240D01*
X148963579Y-79036610D01*
X148897927Y-79084310D01*
X148897925Y-79084312D01*
X148897924Y-79084312D01*
X148764312Y-79217924D01*
X148764312Y-79217925D01*
X148764310Y-79217927D01*
X148716610Y-79283579D01*
X148653240Y-79370800D01*
X148567454Y-79539163D01*
X148509059Y-79718881D01*
X148479500Y-79905513D01*
X148479500Y-80094486D01*
X148509059Y-80281118D01*
X148567454Y-80460836D01*
X148653240Y-80629199D01*
X148764310Y-80782073D01*
X148897927Y-80915690D01*
X149050801Y-81026760D01*
X149084150Y-81043752D01*
X149219163Y-81112545D01*
X149219165Y-81112545D01*
X149219168Y-81112547D01*
X149315497Y-81143846D01*
X149398881Y-81170940D01*
X149585514Y-81200500D01*
X149585519Y-81200500D01*
X149774486Y-81200500D01*
X149961118Y-81170940D01*
X150140832Y-81112547D01*
X150309199Y-81026760D01*
X150462073Y-80915690D01*
X150595690Y-80782073D01*
X150706760Y-80629199D01*
X150792547Y-80460832D01*
X150832069Y-80339195D01*
X150871507Y-80281521D01*
X150935866Y-80254323D01*
X151004712Y-80266238D01*
X151056188Y-80313482D01*
X151067931Y-80339196D01*
X151107454Y-80460836D01*
X151193240Y-80629199D01*
X151304310Y-80782073D01*
X151437927Y-80915690D01*
X151568386Y-81010474D01*
X151611051Y-81065803D01*
X151619500Y-81110791D01*
X151619500Y-82389207D01*
X151599815Y-82456246D01*
X151568386Y-82489525D01*
X151437925Y-82584311D01*
X151304312Y-82717924D01*
X151304312Y-82717925D01*
X151304310Y-82717927D01*
X151301542Y-82721737D01*
X151193240Y-82870800D01*
X151107454Y-83039163D01*
X151067931Y-83160803D01*
X151028493Y-83218478D01*
X150964134Y-83245676D01*
X150895288Y-83233761D01*
X150843812Y-83186516D01*
X150832069Y-83160803D01*
X150792545Y-83039163D01*
X150706759Y-82870800D01*
X150690002Y-82847736D01*
X150595690Y-82717927D01*
X150462073Y-82584310D01*
X150309199Y-82473240D01*
X150280500Y-82458617D01*
X150140836Y-82387454D01*
X149961118Y-82329059D01*
X149774486Y-82299500D01*
X149774481Y-82299500D01*
X149585519Y-82299500D01*
X149585514Y-82299500D01*
X149398881Y-82329059D01*
X149219163Y-82387454D01*
X149050800Y-82473240D01*
X148991333Y-82516446D01*
X148897927Y-82584310D01*
X148897925Y-82584312D01*
X148897924Y-82584312D01*
X148764312Y-82717924D01*
X148764312Y-82717925D01*
X148764310Y-82717927D01*
X148761542Y-82721737D01*
X148653240Y-82870800D01*
X148567454Y-83039163D01*
X148509059Y-83218881D01*
X148479500Y-83405513D01*
X148479500Y-83594486D01*
X148509059Y-83781118D01*
X148567454Y-83960836D01*
X148597942Y-84020671D01*
X148653240Y-84129199D01*
X148764310Y-84282073D01*
X148897927Y-84415690D01*
X149050801Y-84526760D01*
X149219168Y-84612547D01*
X149219237Y-84612569D01*
X149219261Y-84612585D01*
X149223661Y-84614408D01*
X149223278Y-84615332D01*
X149276911Y-84652005D01*
X149304110Y-84716363D01*
X149292197Y-84785209D01*
X149244954Y-84836686D01*
X149180919Y-84854500D01*
X147181670Y-84854500D01*
X147181654Y-84854499D01*
X147174058Y-84854499D01*
X147015943Y-84854499D01*
X146884394Y-84889748D01*
X146863211Y-84895424D01*
X146726287Y-84974477D01*
X146726282Y-84974481D01*
X143752015Y-87948747D01*
X143690692Y-87982232D01*
X143630223Y-87980282D01*
X143553198Y-87958243D01*
X143437418Y-87925114D01*
X143437415Y-87925113D01*
X143437413Y-87925113D01*
X143371102Y-87919217D01*
X143318037Y-87914500D01*
X143318032Y-87914500D01*
X142201971Y-87914500D01*
X142201965Y-87914500D01*
X142201964Y-87914501D01*
X142190316Y-87915536D01*
X142082584Y-87925113D01*
X141886954Y-87981089D01*
X141830051Y-88010813D01*
X141706593Y-88075302D01*
X141706591Y-88075303D01*
X141706590Y-88075304D01*
X141548890Y-88203890D01*
X141420304Y-88361590D01*
X141326089Y-88541954D01*
X141270114Y-88737583D01*
X141270113Y-88737586D01*
X141259500Y-88856966D01*
X141259500Y-90723028D01*
X141259501Y-90723034D01*
X141270113Y-90842415D01*
X141326089Y-91038045D01*
X141326090Y-91038048D01*
X141326091Y-91038049D01*
X141420302Y-91218407D01*
X141420304Y-91218409D01*
X141548890Y-91376109D01*
X141642803Y-91452684D01*
X141706593Y-91504698D01*
X141886951Y-91598909D01*
X142082582Y-91654886D01*
X142201963Y-91665500D01*
X143318036Y-91665499D01*
X143437418Y-91654886D01*
X143633049Y-91598909D01*
X143813407Y-91504698D01*
X143951640Y-91391983D01*
X144016035Y-91364875D01*
X144084865Y-91376884D01*
X144108357Y-91391981D01*
X144246593Y-91504698D01*
X144426951Y-91598909D01*
X144622582Y-91654886D01*
X144741963Y-91665500D01*
X145858036Y-91665499D01*
X145977418Y-91654886D01*
X146173049Y-91598909D01*
X146353407Y-91504698D01*
X146491640Y-91391983D01*
X146556035Y-91364875D01*
X146624865Y-91376884D01*
X146648357Y-91391981D01*
X146786593Y-91504698D01*
X146966951Y-91598909D01*
X147162582Y-91654886D01*
X147281963Y-91665500D01*
X148398036Y-91665499D01*
X148517418Y-91654886D01*
X148713049Y-91598909D01*
X148893407Y-91504698D01*
X149031640Y-91391983D01*
X149096035Y-91364875D01*
X149164865Y-91376884D01*
X149188357Y-91391981D01*
X149326593Y-91504698D01*
X149506951Y-91598909D01*
X149702582Y-91654886D01*
X149795717Y-91663166D01*
X149860749Y-91688710D01*
X149901648Y-91745358D01*
X149905428Y-91815126D01*
X149872417Y-91874360D01*
X149808352Y-91938425D01*
X149715377Y-92086395D01*
X149657659Y-92251341D01*
X149657657Y-92251351D01*
X149643000Y-92381441D01*
X149643000Y-92785500D01*
X149623315Y-92852539D01*
X149570511Y-92898294D01*
X149519000Y-92909500D01*
X148092783Y-92909500D01*
X148025744Y-92889815D01*
X148014118Y-92881353D01*
X148010289Y-92878210D01*
X147879185Y-92790609D01*
X147879172Y-92790602D01*
X147733501Y-92730264D01*
X147733489Y-92730261D01*
X147578845Y-92699500D01*
X147578842Y-92699500D01*
X147421158Y-92699500D01*
X147421155Y-92699500D01*
X147266510Y-92730261D01*
X147266498Y-92730264D01*
X147120827Y-92790602D01*
X147120814Y-92790609D01*
X146989711Y-92878210D01*
X146989707Y-92878213D01*
X146878213Y-92989707D01*
X146878210Y-92989711D01*
X146790609Y-93120814D01*
X146790602Y-93120827D01*
X146730264Y-93266498D01*
X146730261Y-93266510D01*
X146699500Y-93421153D01*
X146699500Y-93578846D01*
X146730261Y-93733489D01*
X146730264Y-93733501D01*
X146790602Y-93879172D01*
X146790609Y-93879185D01*
X146878210Y-94010288D01*
X146878213Y-94010292D01*
X146989707Y-94121786D01*
X146989711Y-94121789D01*
X147120814Y-94209390D01*
X147120827Y-94209397D01*
X147266498Y-94269735D01*
X147266503Y-94269737D01*
X147421153Y-94300499D01*
X147421156Y-94300500D01*
X147421158Y-94300500D01*
X147578844Y-94300500D01*
X147578845Y-94300499D01*
X147733497Y-94269737D01*
X147879179Y-94209394D01*
X147918697Y-94182989D01*
X147995909Y-94131398D01*
X148062587Y-94110520D01*
X148064800Y-94110500D01*
X149519000Y-94110500D01*
X149586039Y-94130185D01*
X149631794Y-94182989D01*
X149643000Y-94234500D01*
X149643000Y-94418558D01*
X149657657Y-94548648D01*
X149657659Y-94548657D01*
X149715378Y-94713606D01*
X149808353Y-94861576D01*
X149931924Y-94985147D01*
X150079894Y-95078122D01*
X150244843Y-95135841D01*
X150244849Y-95135841D01*
X150244851Y-95135842D01*
X150286250Y-95140506D01*
X150374942Y-95150499D01*
X150374945Y-95150500D01*
X150374948Y-95150500D01*
X151012055Y-95150500D01*
X151012056Y-95150499D01*
X151142157Y-95135841D01*
X151307106Y-95078122D01*
X151455076Y-94985147D01*
X151558675Y-94881547D01*
X151619994Y-94848065D01*
X151689686Y-94853049D01*
X151734034Y-94881550D01*
X151837237Y-94984753D01*
X151985113Y-95077669D01*
X152149960Y-95135351D01*
X152279969Y-95149999D01*
X152279973Y-95150000D01*
X152917027Y-95150000D01*
X152917030Y-95149999D01*
X153047039Y-95135351D01*
X153211886Y-95077669D01*
X153359762Y-94984753D01*
X153483253Y-94861262D01*
X153483255Y-94861259D01*
X153569286Y-94724338D01*
X152509405Y-93664457D01*
X152475920Y-93603134D01*
X152480904Y-93533442D01*
X152509405Y-93489095D01*
X152598500Y-93400000D01*
X152598499Y-93399999D01*
X152952052Y-93399999D01*
X152952052Y-93400000D01*
X153648499Y-94096448D01*
X153648500Y-94096447D01*
X153648500Y-92703552D01*
X153648499Y-92703551D01*
X152952052Y-93399999D01*
X152598499Y-93399999D01*
X152509404Y-93310904D01*
X152475919Y-93249581D01*
X152480903Y-93179889D01*
X152509404Y-93135542D01*
X153569287Y-92075659D01*
X153483256Y-91938740D01*
X153419586Y-91875070D01*
X153386101Y-91813747D01*
X153391085Y-91744055D01*
X153432957Y-91688122D01*
X153496285Y-91663876D01*
X153597418Y-91654886D01*
X153793049Y-91598909D01*
X153973407Y-91504698D01*
X154111640Y-91391983D01*
X154176035Y-91364875D01*
X154244865Y-91376884D01*
X154268357Y-91391981D01*
X154406593Y-91504698D01*
X154586951Y-91598909D01*
X154782582Y-91654886D01*
X154901963Y-91665500D01*
X156018036Y-91665499D01*
X156137418Y-91654886D01*
X156333049Y-91598909D01*
X156513407Y-91504698D01*
X156651640Y-91391983D01*
X156716035Y-91364875D01*
X156784865Y-91376884D01*
X156808357Y-91391981D01*
X156946593Y-91504698D01*
X157126951Y-91598909D01*
X157322582Y-91654886D01*
X157441963Y-91665500D01*
X158558036Y-91665499D01*
X158677418Y-91654886D01*
X158873049Y-91598909D01*
X159053407Y-91504698D01*
X159211109Y-91376109D01*
X159339698Y-91218407D01*
X159433909Y-91038049D01*
X159489886Y-90842418D01*
X159500500Y-90723037D01*
X159500499Y-88856964D01*
X159489886Y-88737582D01*
X159433909Y-88541951D01*
X159339698Y-88361593D01*
X159270000Y-88276115D01*
X159211109Y-88203890D01*
X159053409Y-88075304D01*
X159053410Y-88075304D01*
X159053407Y-88075302D01*
X158873049Y-87981091D01*
X158873048Y-87981090D01*
X158873045Y-87981089D01*
X158755829Y-87947550D01*
X158677418Y-87925114D01*
X158677415Y-87925113D01*
X158677413Y-87925113D01*
X158611102Y-87919217D01*
X158558037Y-87914500D01*
X158558032Y-87914500D01*
X157441971Y-87914500D01*
X157441965Y-87914500D01*
X157441964Y-87914501D01*
X157430316Y-87915536D01*
X157322584Y-87925113D01*
X157126954Y-87981089D01*
X157070051Y-88010813D01*
X156946593Y-88075302D01*
X156946591Y-88075303D01*
X156946590Y-88075304D01*
X156808361Y-88188015D01*
X156743964Y-88215124D01*
X156675135Y-88203115D01*
X156651639Y-88188015D01*
X156513409Y-88075304D01*
X156513410Y-88075304D01*
X156513407Y-88075302D01*
X156333049Y-87981091D01*
X156333048Y-87981090D01*
X156333045Y-87981089D01*
X156215829Y-87947550D01*
X156137418Y-87925114D01*
X156137415Y-87925113D01*
X156137413Y-87925113D01*
X156071102Y-87919217D01*
X156018037Y-87914500D01*
X156018032Y-87914500D01*
X154901971Y-87914500D01*
X154901965Y-87914500D01*
X154901964Y-87914501D01*
X154890316Y-87915536D01*
X154782584Y-87925113D01*
X154589774Y-87980282D01*
X154519906Y-87979799D01*
X154467982Y-87948747D01*
X153660605Y-87141370D01*
X153651521Y-87132286D01*
X153651520Y-87132284D01*
X153539716Y-87020480D01*
X153508033Y-87002188D01*
X153498104Y-86993130D01*
X153486666Y-86974292D01*
X153471458Y-86958342D01*
X153468888Y-86945009D01*
X153461843Y-86933406D01*
X153462405Y-86911377D01*
X153458234Y-86889735D01*
X153463621Y-86863783D01*
X153463627Y-86863559D01*
X153463685Y-86863472D01*
X153463742Y-86863202D01*
X153490452Y-86780995D01*
X153520000Y-86594447D01*
X153520000Y-86405552D01*
X153490452Y-86218999D01*
X153490068Y-86217817D01*
X153490054Y-86217341D01*
X153489313Y-86214252D01*
X153489961Y-86214096D01*
X153488074Y-86147975D01*
X153524155Y-86088143D01*
X153586857Y-86057316D01*
X153608000Y-86055500D01*
X155858331Y-86055500D01*
X155858347Y-86055501D01*
X155865943Y-86055501D01*
X156024054Y-86055501D01*
X156024057Y-86055501D01*
X156176785Y-86014577D01*
X156226904Y-85985639D01*
X156313716Y-85935520D01*
X156425520Y-85823716D01*
X156425520Y-85823714D01*
X156435728Y-85813507D01*
X156435730Y-85813504D01*
X157438323Y-84810910D01*
X157499642Y-84777428D01*
X157569334Y-84782412D01*
X157625267Y-84824284D01*
X157649684Y-84889748D01*
X157650000Y-84898594D01*
X157650000Y-85399971D01*
X157650001Y-85399987D01*
X157660494Y-85502697D01*
X157715641Y-85669119D01*
X157715643Y-85669124D01*
X157807684Y-85818345D01*
X157931654Y-85942315D01*
X158080875Y-86034356D01*
X158080880Y-86034358D01*
X158247302Y-86089505D01*
X158247309Y-86089506D01*
X158350019Y-86099999D01*
X158899999Y-86099999D01*
X158900000Y-86099998D01*
X158900000Y-85183012D01*
X158957007Y-85215925D01*
X159084174Y-85250000D01*
X159215826Y-85250000D01*
X159342993Y-85215925D01*
X159400000Y-85183012D01*
X159400000Y-86099999D01*
X159949972Y-86099999D01*
X159949986Y-86099998D01*
X160052697Y-86089505D01*
X160219119Y-86034358D01*
X160219126Y-86034355D01*
X160230402Y-86027400D01*
X160297794Y-86008959D01*
X160364458Y-86029881D01*
X160409228Y-86083522D01*
X160419500Y-86132938D01*
X160419500Y-95970771D01*
X160399815Y-96037810D01*
X160347011Y-96083565D01*
X160277853Y-96093509D01*
X160214297Y-96064484D01*
X160185015Y-96027066D01*
X160133897Y-95926742D01*
X160103551Y-95867184D01*
X160095523Y-95856134D01*
X159978609Y-95695213D01*
X159828286Y-95544890D01*
X159656320Y-95419951D01*
X159466914Y-95323444D01*
X159466913Y-95323443D01*
X159466912Y-95323443D01*
X159264743Y-95257754D01*
X159264741Y-95257753D01*
X159264740Y-95257753D01*
X159103457Y-95232208D01*
X159054787Y-95224500D01*
X158842213Y-95224500D01*
X158793542Y-95232208D01*
X158632260Y-95257753D01*
X158430085Y-95323444D01*
X158240679Y-95419951D01*
X158068713Y-95544890D01*
X157918390Y-95695213D01*
X157793449Y-95867182D01*
X157788984Y-95875946D01*
X157741009Y-95926742D01*
X157673188Y-95943536D01*
X157607053Y-95920998D01*
X157568016Y-95875946D01*
X157563550Y-95867182D01*
X157438609Y-95695213D01*
X157288286Y-95544890D01*
X157116320Y-95419951D01*
X156926914Y-95323444D01*
X156926913Y-95323443D01*
X156926912Y-95323443D01*
X156724743Y-95257754D01*
X156724741Y-95257753D01*
X156724740Y-95257753D01*
X156563457Y-95232208D01*
X156514787Y-95224500D01*
X156302213Y-95224500D01*
X156253542Y-95232208D01*
X156092260Y-95257753D01*
X155890085Y-95323444D01*
X155700679Y-95419951D01*
X155528713Y-95544890D01*
X155378390Y-95695213D01*
X155253451Y-95867179D01*
X155156944Y-96056585D01*
X155091253Y-96258760D01*
X155058000Y-96468713D01*
X155058000Y-96681287D01*
X155091254Y-96891243D01*
X155150030Y-97072137D01*
X155156944Y-97093414D01*
X155253451Y-97282820D01*
X155378390Y-97454786D01*
X155528713Y-97605109D01*
X155700679Y-97730048D01*
X155700681Y-97730049D01*
X155700684Y-97730051D01*
X155709993Y-97734794D01*
X155760790Y-97782766D01*
X155777587Y-97850587D01*
X155755052Y-97916722D01*
X155710005Y-97955760D01*
X155700946Y-97960376D01*
X155700940Y-97960380D01*
X155646782Y-97999727D01*
X155646782Y-97999728D01*
X156408500Y-98761446D01*
X156408501Y-98761446D01*
X157170216Y-97999728D01*
X157116047Y-97960373D01*
X157116047Y-97960372D01*
X157107000Y-97955763D01*
X157056206Y-97907788D01*
X157039412Y-97839966D01*
X157061951Y-97773832D01*
X157107008Y-97734793D01*
X157116316Y-97730051D01*
X157195507Y-97672515D01*
X157288286Y-97605109D01*
X157288288Y-97605106D01*
X157288292Y-97605104D01*
X157438604Y-97454792D01*
X157438606Y-97454788D01*
X157438609Y-97454786D01*
X157563548Y-97282820D01*
X157563547Y-97282820D01*
X157563551Y-97282816D01*
X157568014Y-97274054D01*
X157615988Y-97223259D01*
X157683808Y-97206463D01*
X157749944Y-97228999D01*
X157788986Y-97274056D01*
X157793451Y-97282820D01*
X157918390Y-97454786D01*
X158068713Y-97605109D01*
X158240682Y-97730050D01*
X158249446Y-97734516D01*
X158300242Y-97782491D01*
X158317036Y-97850312D01*
X158294498Y-97916447D01*
X158249446Y-97955484D01*
X158240682Y-97959949D01*
X158068713Y-98084890D01*
X157918390Y-98235213D01*
X157793449Y-98407182D01*
X157788702Y-98416499D01*
X157740727Y-98467293D01*
X157672905Y-98484087D01*
X157606771Y-98461548D01*
X157567734Y-98416495D01*
X157563126Y-98407452D01*
X157523770Y-98353282D01*
X157523769Y-98353282D01*
X156762054Y-99114999D01*
X156762054Y-99115001D01*
X157523770Y-99876717D01*
X157523770Y-99876716D01*
X157563122Y-99822555D01*
X157567732Y-99813507D01*
X157615705Y-99762709D01*
X157683525Y-99745912D01*
X157749661Y-99768447D01*
X157788704Y-99813504D01*
X157793449Y-99822817D01*
X157918390Y-99994786D01*
X158068713Y-100145109D01*
X158240679Y-100270048D01*
X158240681Y-100270049D01*
X158240684Y-100270051D01*
X158430088Y-100366557D01*
X158632257Y-100432246D01*
X158842213Y-100465500D01*
X158842214Y-100465500D01*
X159054786Y-100465500D01*
X159054787Y-100465500D01*
X159264743Y-100432246D01*
X159466912Y-100366557D01*
X159656316Y-100270051D01*
X159711072Y-100230269D01*
X159828286Y-100145109D01*
X159828288Y-100145106D01*
X159828292Y-100145104D01*
X159978604Y-99994792D01*
X159978606Y-99994788D01*
X159978609Y-99994786D01*
X160103548Y-99822820D01*
X160103550Y-99822817D01*
X160103551Y-99822816D01*
X160185015Y-99662932D01*
X160232989Y-99612137D01*
X160300810Y-99595342D01*
X160366945Y-99617879D01*
X160410397Y-99672594D01*
X160419500Y-99719228D01*
X160419500Y-107485500D01*
X160399815Y-107552539D01*
X160347011Y-107598294D01*
X160295500Y-107609500D01*
X159416449Y-107609500D01*
X159349410Y-107589815D01*
X159303655Y-107537011D01*
X159293711Y-107467853D01*
X159320347Y-107407139D01*
X159339698Y-107383407D01*
X159433909Y-107203049D01*
X159489886Y-107007418D01*
X159500500Y-106888037D01*
X159500499Y-105021964D01*
X159489886Y-104902582D01*
X159433909Y-104706951D01*
X159339698Y-104526593D01*
X159268914Y-104439783D01*
X159211109Y-104368890D01*
X159057038Y-104243263D01*
X159053407Y-104240302D01*
X158873049Y-104146091D01*
X158873048Y-104146090D01*
X158873045Y-104146089D01*
X158755829Y-104112550D01*
X158677418Y-104090114D01*
X158677415Y-104090113D01*
X158677413Y-104090113D01*
X158611102Y-104084217D01*
X158558037Y-104079500D01*
X158558032Y-104079500D01*
X157441971Y-104079500D01*
X157441965Y-104079500D01*
X157441964Y-104079501D01*
X157436351Y-104080000D01*
X157322584Y-104090113D01*
X157126954Y-104146089D01*
X156946587Y-104240305D01*
X156807963Y-104353338D01*
X156743567Y-104380447D01*
X156674737Y-104368437D01*
X156651242Y-104353338D01*
X156513129Y-104240721D01*
X156332861Y-104146557D01*
X156137328Y-104090609D01*
X156137325Y-104090608D01*
X156018000Y-104080000D01*
X155710000Y-104080000D01*
X155710000Y-105831000D01*
X155690315Y-105898039D01*
X155637511Y-105943794D01*
X155586000Y-105955000D01*
X155334000Y-105955000D01*
X155266961Y-105935315D01*
X155221206Y-105882511D01*
X155210000Y-105831000D01*
X155210000Y-104080000D01*
X154901999Y-104080000D01*
X154782674Y-104090608D01*
X154782671Y-104090609D01*
X154587138Y-104146557D01*
X154406870Y-104240721D01*
X154268757Y-104353338D01*
X154204361Y-104380447D01*
X154135531Y-104368438D01*
X154112035Y-104353338D01*
X153977038Y-104243263D01*
X153973407Y-104240302D01*
X153793049Y-104146091D01*
X153793048Y-104146090D01*
X153793045Y-104146089D01*
X153675829Y-104112550D01*
X153597418Y-104090114D01*
X153597415Y-104090113D01*
X153597413Y-104090113D01*
X153531102Y-104084217D01*
X153478037Y-104079500D01*
X153478032Y-104079500D01*
X152361971Y-104079500D01*
X152361965Y-104079500D01*
X152361964Y-104079501D01*
X152356351Y-104080000D01*
X152242584Y-104090113D01*
X152046954Y-104146089D01*
X152018112Y-104161155D01*
X151866593Y-104240302D01*
X151866591Y-104240303D01*
X151866590Y-104240304D01*
X151728361Y-104353015D01*
X151663964Y-104380124D01*
X151595135Y-104368115D01*
X151571639Y-104353015D01*
X151437038Y-104243263D01*
X151433407Y-104240302D01*
X151253049Y-104146091D01*
X151253048Y-104146090D01*
X151253045Y-104146089D01*
X151135829Y-104112550D01*
X151057418Y-104090114D01*
X151057415Y-104090113D01*
X151057413Y-104090113D01*
X150991102Y-104084217D01*
X150938037Y-104079500D01*
X150938032Y-104079500D01*
X149821971Y-104079500D01*
X149821965Y-104079500D01*
X149821964Y-104079501D01*
X149816351Y-104080000D01*
X149702584Y-104090113D01*
X149506954Y-104146089D01*
X149478112Y-104161155D01*
X149326593Y-104240302D01*
X149326591Y-104240303D01*
X149326590Y-104240304D01*
X149188361Y-104353015D01*
X149123964Y-104380124D01*
X149055135Y-104368115D01*
X149031639Y-104353015D01*
X148897038Y-104243263D01*
X148893407Y-104240302D01*
X148713049Y-104146091D01*
X148713048Y-104146090D01*
X148713045Y-104146089D01*
X148595829Y-104112550D01*
X148517418Y-104090114D01*
X148517415Y-104090113D01*
X148517413Y-104090113D01*
X148451102Y-104084217D01*
X148398037Y-104079500D01*
X148398032Y-104079500D01*
X147281971Y-104079500D01*
X147281965Y-104079500D01*
X147281964Y-104079501D01*
X147276351Y-104080000D01*
X147162584Y-104090113D01*
X146966954Y-104146089D01*
X146938112Y-104161155D01*
X146786593Y-104240302D01*
X146786591Y-104240303D01*
X146786590Y-104240304D01*
X146648361Y-104353015D01*
X146583964Y-104380124D01*
X146515135Y-104368115D01*
X146491639Y-104353015D01*
X146357038Y-104243263D01*
X146353407Y-104240302D01*
X146173049Y-104146091D01*
X146173048Y-104146090D01*
X146173045Y-104146089D01*
X146055829Y-104112550D01*
X145977418Y-104090114D01*
X145977415Y-104090113D01*
X145977413Y-104090113D01*
X145911102Y-104084217D01*
X145858037Y-104079500D01*
X145858032Y-104079500D01*
X144741971Y-104079500D01*
X144741965Y-104079500D01*
X144741964Y-104079501D01*
X144736351Y-104080000D01*
X144622584Y-104090113D01*
X144426954Y-104146089D01*
X144398112Y-104161155D01*
X144246593Y-104240302D01*
X144246591Y-104240303D01*
X144246590Y-104240304D01*
X144108361Y-104353015D01*
X144043964Y-104380124D01*
X143975135Y-104368115D01*
X143951639Y-104353015D01*
X143817038Y-104243263D01*
X143813407Y-104240302D01*
X143633049Y-104146091D01*
X143633048Y-104146090D01*
X143633045Y-104146089D01*
X143515829Y-104112550D01*
X143437418Y-104090114D01*
X143437415Y-104090113D01*
X143437413Y-104090113D01*
X143364631Y-104083642D01*
X143318037Y-104079500D01*
X143318033Y-104079500D01*
X143009715Y-104079500D01*
X142942676Y-104059815D01*
X142896921Y-104007011D01*
X142886495Y-103941617D01*
X142891786Y-103894655D01*
X142893600Y-103878552D01*
X142893600Y-103241448D01*
X142878941Y-103111343D01*
X142821222Y-102946394D01*
X142728247Y-102798424D01*
X142625004Y-102695181D01*
X142591519Y-102633858D01*
X142596503Y-102564166D01*
X142625004Y-102519819D01*
X142728247Y-102416576D01*
X142821222Y-102268606D01*
X142878941Y-102103657D01*
X142893600Y-101973552D01*
X142893600Y-101336448D01*
X142878941Y-101206343D01*
X142821222Y-101041394D01*
X142728247Y-100893424D01*
X142604676Y-100769853D01*
X142456706Y-100676878D01*
X142456705Y-100676877D01*
X142456704Y-100676877D01*
X142291758Y-100619159D01*
X142291748Y-100619157D01*
X142161658Y-100604500D01*
X142161652Y-100604500D01*
X140124548Y-100604500D01*
X140124541Y-100604500D01*
X139994451Y-100619157D01*
X139994441Y-100619159D01*
X139829495Y-100676877D01*
X139681523Y-100769853D01*
X139557953Y-100893423D01*
X139464977Y-101041395D01*
X139407259Y-101206341D01*
X139407257Y-101206351D01*
X139392600Y-101336441D01*
X139392600Y-101973558D01*
X139407257Y-102103648D01*
X139407259Y-102103658D01*
X139464977Y-102268604D01*
X139557953Y-102416576D01*
X139661196Y-102519819D01*
X139694681Y-102581142D01*
X139689697Y-102650834D01*
X139661196Y-102695181D01*
X139557953Y-102798423D01*
X139464977Y-102946395D01*
X139407259Y-103111341D01*
X139407257Y-103111351D01*
X139392600Y-103241441D01*
X139392600Y-103878558D01*
X139407257Y-104008648D01*
X139407259Y-104008658D01*
X139460621Y-104161155D01*
X139464978Y-104173606D01*
X139557953Y-104321576D01*
X139681524Y-104445147D01*
X139829494Y-104538122D01*
X139994443Y-104595841D01*
X139994449Y-104595841D01*
X139994451Y-104595842D01*
X140035850Y-104600506D01*
X140124542Y-104610499D01*
X140124545Y-104610500D01*
X140124548Y-104610500D01*
X141189232Y-104610500D01*
X141256271Y-104630185D01*
X141302026Y-104682989D01*
X141311970Y-104752147D01*
X141308448Y-104768612D01*
X141270113Y-104902586D01*
X141264643Y-104964112D01*
X141260189Y-105014221D01*
X141259500Y-105021966D01*
X141259500Y-106888028D01*
X141259501Y-106888034D01*
X141270113Y-107007415D01*
X141326089Y-107203045D01*
X141326090Y-107203048D01*
X141326091Y-107203049D01*
X141420302Y-107383407D01*
X141420304Y-107383409D01*
X141439653Y-107407139D01*
X141466762Y-107471536D01*
X141454753Y-107540365D01*
X141407437Y-107591776D01*
X141343551Y-107609500D01*
X134654500Y-107609500D01*
X134587461Y-107589815D01*
X134541706Y-107537011D01*
X134530500Y-107485500D01*
X134530500Y-106257243D01*
X134550185Y-106190204D01*
X134602989Y-106144449D01*
X134672147Y-106134505D01*
X134735703Y-106163530D01*
X134752876Y-106181757D01*
X134862024Y-106324002D01*
X134862030Y-106324009D01*
X135065990Y-106527969D01*
X135065996Y-106527974D01*
X135294844Y-106703575D01*
X135294851Y-106703579D01*
X135544647Y-106847800D01*
X135544663Y-106847808D01*
X135811139Y-106958185D01*
X135811145Y-106958186D01*
X135811155Y-106958191D01*
X136089783Y-107032849D01*
X136375772Y-107070500D01*
X136375779Y-107070500D01*
X136664221Y-107070500D01*
X136664228Y-107070500D01*
X136950217Y-107032849D01*
X137228845Y-106958191D01*
X137228857Y-106958185D01*
X137228860Y-106958185D01*
X137495336Y-106847808D01*
X137495339Y-106847806D01*
X137495345Y-106847804D01*
X137745156Y-106703575D01*
X137974004Y-106527974D01*
X138177974Y-106324004D01*
X138353575Y-106095156D01*
X138497804Y-105845345D01*
X138608191Y-105578845D01*
X138682849Y-105300217D01*
X138720500Y-105014228D01*
X138720500Y-104725772D01*
X138682849Y-104439783D01*
X138608191Y-104161155D01*
X138608186Y-104161145D01*
X138608185Y-104161139D01*
X138497808Y-103894663D01*
X138497800Y-103894647D01*
X138353579Y-103644851D01*
X138353575Y-103644844D01*
X138177974Y-103415996D01*
X138177969Y-103415990D01*
X137974009Y-103212030D01*
X137974002Y-103212024D01*
X137745164Y-103036431D01*
X137745162Y-103036429D01*
X137745156Y-103036425D01*
X137745151Y-103036422D01*
X137745148Y-103036420D01*
X137495352Y-102892199D01*
X137495336Y-102892191D01*
X137228860Y-102781814D01*
X137228848Y-102781810D01*
X137228845Y-102781809D01*
X136950217Y-102707151D01*
X136950211Y-102707150D01*
X136950206Y-102707149D01*
X136664238Y-102669501D01*
X136664233Y-102669500D01*
X136664228Y-102669500D01*
X136375772Y-102669500D01*
X136375766Y-102669500D01*
X136375761Y-102669501D01*
X136089793Y-102707149D01*
X136089786Y-102707150D01*
X136089783Y-102707151D01*
X135811155Y-102781809D01*
X135811139Y-102781814D01*
X135544663Y-102892191D01*
X135544647Y-102892199D01*
X135294851Y-103036420D01*
X135294835Y-103036431D01*
X135065997Y-103212024D01*
X135065990Y-103212030D01*
X134862030Y-103415990D01*
X134752876Y-103558243D01*
X134696448Y-103599445D01*
X134626702Y-103603600D01*
X134565781Y-103569388D01*
X134533029Y-103507670D01*
X134530500Y-103482756D01*
X134530500Y-100230269D01*
X155646782Y-100230269D01*
X155646782Y-100230270D01*
X155700949Y-100269624D01*
X155890282Y-100366095D01*
X156092370Y-100431757D01*
X156302254Y-100465000D01*
X156514746Y-100465000D01*
X156724627Y-100431757D01*
X156724630Y-100431757D01*
X156926717Y-100366095D01*
X157116054Y-100269622D01*
X157170216Y-100230270D01*
X157170217Y-100230270D01*
X156408500Y-99468554D01*
X155646782Y-100230269D01*
X134530500Y-100230269D01*
X134530500Y-99008753D01*
X155058500Y-99008753D01*
X155058500Y-99221246D01*
X155091742Y-99431127D01*
X155091742Y-99431130D01*
X155157404Y-99633217D01*
X155253875Y-99822550D01*
X155293228Y-99876716D01*
X156054946Y-99115000D01*
X155293228Y-98353282D01*
X155293227Y-98353282D01*
X155253880Y-98407439D01*
X155157404Y-98596782D01*
X155091742Y-98798869D01*
X155091742Y-98798872D01*
X155058500Y-99008753D01*
X134530500Y-99008753D01*
X134530500Y-84020666D01*
X141481500Y-84020666D01*
X141481500Y-84219333D01*
X141520254Y-84414161D01*
X141520256Y-84414169D01*
X141596277Y-84597701D01*
X141596282Y-84597710D01*
X141706646Y-84762880D01*
X141706649Y-84762884D01*
X141847115Y-84903350D01*
X141847119Y-84903353D01*
X142012289Y-85013717D01*
X142012295Y-85013720D01*
X142012296Y-85013721D01*
X142195831Y-85089744D01*
X142390666Y-85128499D01*
X142390670Y-85128500D01*
X142390671Y-85128500D01*
X142589330Y-85128500D01*
X142589331Y-85128499D01*
X142784169Y-85089744D01*
X142967704Y-85013721D01*
X143132881Y-84903353D01*
X143273353Y-84762881D01*
X143383721Y-84597704D01*
X143459744Y-84414169D01*
X143498500Y-84219329D01*
X143498500Y-84020671D01*
X143498500Y-84014579D01*
X143500755Y-84014579D01*
X143511883Y-83955847D01*
X143534593Y-83924641D01*
X148630520Y-78828716D01*
X148709577Y-78691784D01*
X148750501Y-78539057D01*
X148750501Y-78380942D01*
X148750501Y-78373347D01*
X148750500Y-78373329D01*
X148750500Y-77815448D01*
X148770185Y-77748409D01*
X148822989Y-77702654D01*
X148835488Y-77697744D01*
X148844334Y-77694814D01*
X148993656Y-77602712D01*
X149117712Y-77478656D01*
X149209814Y-77329334D01*
X149264999Y-77162797D01*
X149275500Y-77060009D01*
X149275499Y-74959992D01*
X149264999Y-74857203D01*
X149209814Y-74690666D01*
X149117712Y-74541344D01*
X148993656Y-74417288D01*
X148844334Y-74325186D01*
X148677797Y-74270001D01*
X148677795Y-74270000D01*
X148575010Y-74259500D01*
X147724998Y-74259500D01*
X147724980Y-74259501D01*
X147622203Y-74270000D01*
X147622200Y-74270001D01*
X147455668Y-74325185D01*
X147455663Y-74325187D01*
X147306342Y-74417289D01*
X147182289Y-74541342D01*
X147090187Y-74690663D01*
X147090185Y-74690668D01*
X147066630Y-74761752D01*
X147035001Y-74857203D01*
X147035001Y-74857204D01*
X147035000Y-74857204D01*
X147024500Y-74959983D01*
X147024500Y-77060001D01*
X147024501Y-77060018D01*
X147035000Y-77162796D01*
X147035001Y-77162799D01*
X147090185Y-77329331D01*
X147090186Y-77329334D01*
X147182288Y-77478656D01*
X147306344Y-77602712D01*
X147455666Y-77694814D01*
X147464498Y-77697740D01*
X147521944Y-77737508D01*
X147548771Y-77802022D01*
X147549500Y-77815448D01*
X147549500Y-78159901D01*
X147529815Y-78226940D01*
X147513181Y-78247582D01*
X143442787Y-82317974D01*
X143381464Y-82351459D01*
X143360897Y-82352653D01*
X142754457Y-82959095D01*
X142720297Y-82977747D01*
X142744000Y-82920524D01*
X142744000Y-82819476D01*
X142705331Y-82726121D01*
X142633879Y-82654669D01*
X142540524Y-82616000D01*
X142439476Y-82616000D01*
X142346121Y-82654669D01*
X142274669Y-82726121D01*
X142236000Y-82819476D01*
X142236000Y-82920524D01*
X142261566Y-82982247D01*
X142225542Y-82959095D01*
X141621659Y-82355212D01*
X141621657Y-82355212D01*
X141596722Y-82392530D01*
X141520737Y-82575976D01*
X141520735Y-82575984D01*
X141482000Y-82770716D01*
X141482000Y-82969283D01*
X141520735Y-83164015D01*
X141520737Y-83164023D01*
X141596721Y-83347466D01*
X141648968Y-83425659D01*
X141669846Y-83492337D01*
X141651361Y-83559717D01*
X141648968Y-83563441D01*
X141596278Y-83642296D01*
X141520256Y-83825830D01*
X141520254Y-83825838D01*
X141481500Y-84020666D01*
X134530500Y-84020666D01*
X134530500Y-82001657D01*
X141975212Y-82001657D01*
X141975212Y-82001659D01*
X142490000Y-82516446D01*
X142490001Y-82516446D01*
X143004786Y-82001659D01*
X142967462Y-81976719D01*
X142784023Y-81900737D01*
X142784015Y-81900735D01*
X142589282Y-81862000D01*
X142390718Y-81862000D01*
X142195984Y-81900735D01*
X142195976Y-81900737D01*
X142012530Y-81976722D01*
X141975212Y-82001657D01*
X134530500Y-82001657D01*
X134530500Y-76337566D01*
X134550185Y-76270527D01*
X134602989Y-76224772D01*
X134672147Y-76214828D01*
X134735703Y-76243853D01*
X134752876Y-76262080D01*
X134762024Y-76274002D01*
X134762030Y-76274009D01*
X134965990Y-76477969D01*
X134965996Y-76477974D01*
X135194844Y-76653575D01*
X135194851Y-76653579D01*
X135444647Y-76797800D01*
X135444663Y-76797808D01*
X135711139Y-76908185D01*
X135711145Y-76908186D01*
X135711155Y-76908191D01*
X135989783Y-76982849D01*
X136275772Y-77020500D01*
X136275779Y-77020500D01*
X136564221Y-77020500D01*
X136564228Y-77020500D01*
X136850217Y-76982849D01*
X137128845Y-76908191D01*
X137128857Y-76908185D01*
X137128860Y-76908185D01*
X137395336Y-76797808D01*
X137395339Y-76797806D01*
X137395345Y-76797804D01*
X137645156Y-76653575D01*
X137874004Y-76477974D01*
X138077974Y-76274004D01*
X138253575Y-76045156D01*
X138397804Y-75795345D01*
X138455396Y-75656306D01*
X138508185Y-75528860D01*
X138508185Y-75528857D01*
X138508191Y-75528845D01*
X138582849Y-75250217D01*
X138620500Y-74964228D01*
X138620500Y-74882155D01*
X139340000Y-74882155D01*
X139340000Y-75580000D01*
X140364722Y-75580000D01*
X140320667Y-75656306D01*
X140290000Y-75770756D01*
X140290000Y-75889244D01*
X140320667Y-76003694D01*
X140364722Y-76080000D01*
X139340000Y-76080000D01*
X139340000Y-76777844D01*
X139346401Y-76837372D01*
X139346403Y-76837379D01*
X139396645Y-76972086D01*
X139396649Y-76972093D01*
X139482809Y-77087187D01*
X139482812Y-77087190D01*
X139597906Y-77173350D01*
X139597913Y-77173354D01*
X139732620Y-77223596D01*
X139732627Y-77223598D01*
X139792155Y-77229999D01*
X139792172Y-77230000D01*
X140490000Y-77230000D01*
X140490000Y-76205277D01*
X140566306Y-76249333D01*
X140680756Y-76280000D01*
X140799244Y-76280000D01*
X140913694Y-76249333D01*
X140990000Y-76205277D01*
X140990000Y-77230000D01*
X141687828Y-77230000D01*
X141687844Y-77229999D01*
X141747372Y-77223598D01*
X141747379Y-77223596D01*
X141882086Y-77173354D01*
X141882093Y-77173350D01*
X141997187Y-77087190D01*
X141997190Y-77087187D01*
X142083350Y-76972093D01*
X142083354Y-76972086D01*
X142113213Y-76892031D01*
X142155084Y-76836097D01*
X142220548Y-76811680D01*
X142288821Y-76826531D01*
X142317076Y-76847683D01*
X142367636Y-76898243D01*
X142367641Y-76898247D01*
X142523192Y-77011260D01*
X142545978Y-77027815D01*
X142662501Y-77087187D01*
X142742393Y-77127895D01*
X142742396Y-77127896D01*
X142847221Y-77161955D01*
X142952049Y-77196015D01*
X143169778Y-77230500D01*
X143169779Y-77230500D01*
X143390221Y-77230500D01*
X143390222Y-77230500D01*
X143607951Y-77196015D01*
X143817606Y-77127895D01*
X144014022Y-77027815D01*
X144192365Y-76898242D01*
X144348242Y-76742365D01*
X144477815Y-76564022D01*
X144577895Y-76367606D01*
X144646015Y-76157951D01*
X144680500Y-75940222D01*
X144680500Y-75719778D01*
X144646015Y-75502049D01*
X144611955Y-75397221D01*
X144577896Y-75292396D01*
X144577895Y-75292393D01*
X144543237Y-75224375D01*
X144477815Y-75095978D01*
X144382089Y-74964221D01*
X144348247Y-74917641D01*
X144348243Y-74917636D01*
X144192363Y-74761756D01*
X144192358Y-74761752D01*
X144014025Y-74632187D01*
X144014024Y-74632186D01*
X144014022Y-74632185D01*
X143951096Y-74600122D01*
X143817606Y-74532104D01*
X143817603Y-74532103D01*
X143607952Y-74463985D01*
X143499086Y-74446742D01*
X143390222Y-74429500D01*
X143169778Y-74429500D01*
X143097201Y-74440995D01*
X142952047Y-74463985D01*
X142742396Y-74532103D01*
X142742393Y-74532104D01*
X142545974Y-74632187D01*
X142367641Y-74761752D01*
X142367636Y-74761756D01*
X142317075Y-74812317D01*
X142255752Y-74845801D01*
X142186060Y-74840816D01*
X142130127Y-74798945D01*
X142113213Y-74767968D01*
X142083354Y-74687913D01*
X142083350Y-74687906D01*
X141997190Y-74572812D01*
X141997187Y-74572809D01*
X141882093Y-74486649D01*
X141882086Y-74486645D01*
X141747379Y-74436403D01*
X141747372Y-74436401D01*
X141687844Y-74430000D01*
X140990000Y-74430000D01*
X140990000Y-75454722D01*
X140913694Y-75410667D01*
X140799244Y-75380000D01*
X140680756Y-75380000D01*
X140566306Y-75410667D01*
X140490000Y-75454722D01*
X140490000Y-74430000D01*
X139792155Y-74430000D01*
X139732627Y-74436401D01*
X139732620Y-74436403D01*
X139597913Y-74486645D01*
X139597906Y-74486649D01*
X139482812Y-74572809D01*
X139482809Y-74572812D01*
X139396649Y-74687906D01*
X139396645Y-74687913D01*
X139346403Y-74822620D01*
X139346401Y-74822627D01*
X139340000Y-74882155D01*
X138620500Y-74882155D01*
X138620500Y-74675772D01*
X138582849Y-74389783D01*
X138508191Y-74111155D01*
X138508186Y-74111145D01*
X138508185Y-74111139D01*
X138397808Y-73844663D01*
X138397800Y-73844647D01*
X138253579Y-73594851D01*
X138253575Y-73594844D01*
X138153422Y-73464322D01*
X138077975Y-73365997D01*
X138077969Y-73365990D01*
X137874009Y-73162030D01*
X137836015Y-73132876D01*
X137794813Y-73076448D01*
X137790658Y-73006702D01*
X137824871Y-72945781D01*
X137886588Y-72913029D01*
X137911502Y-72910500D01*
X146454202Y-72910500D01*
X146521241Y-72930185D01*
G37*
G04 #@! TD.AperFunction*
G04 #@! TD*
M02*
