%TF.GenerationSoftware,KiCad,Pcbnew,9.0.2*%
%TF.CreationDate,2025-07-17T17:12:15-04:00*%
%TF.ProjectId,boitier_arme,626f6974-6965-4725-9f61-726d652e6b69,rev?*%
%TF.SameCoordinates,Original*%
%TF.FileFunction,Copper,L2,Bot*%
%TF.FilePolarity,Positive*%
%FSLAX46Y46*%
G04 Gerber Fmt 4.6, Leading zero omitted, Abs format (unit mm)*
G04 Created by KiCad (PCBNEW 9.0.2) date 2025-07-17 17:12:15*
%MOMM*%
%LPD*%
G01*
G04 APERTURE LIST*
G04 Aperture macros list*
%AMRoundRect*
0 Rectangle with rounded corners*
0 $1 Rounding radius*
0 $2 $3 $4 $5 $6 $7 $8 $9 X,Y pos of 4 corners*
0 Add a 4 corners polygon primitive as box body*
4,1,4,$2,$3,$4,$5,$6,$7,$8,$9,$2,$3,0*
0 Add four circle primitives for the rounded corners*
1,1,$1+$1,$2,$3*
1,1,$1+$1,$4,$5*
1,1,$1+$1,$6,$7*
1,1,$1+$1,$8,$9*
0 Add four rect primitives between the rounded corners*
20,1,$1+$1,$2,$3,$4,$5,0*
20,1,$1+$1,$4,$5,$6,$7,0*
20,1,$1+$1,$6,$7,$8,$9,0*
20,1,$1+$1,$8,$9,$2,$3,0*%
G04 Aperture macros list end*
%TA.AperFunction,ComponentPad*%
%ADD10C,1.016000*%
%TD*%
%TA.AperFunction,ComponentPad*%
%ADD11C,1.400000*%
%TD*%
%TA.AperFunction,ComponentPad*%
%ADD12RoundRect,0.250000X0.750000X-0.600000X0.750000X0.600000X-0.750000X0.600000X-0.750000X-0.600000X0*%
%TD*%
%TA.AperFunction,ComponentPad*%
%ADD13O,2.000000X1.700000*%
%TD*%
%TA.AperFunction,ComponentPad*%
%ADD14R,1.800000X1.800000*%
%TD*%
%TA.AperFunction,ComponentPad*%
%ADD15C,1.800000*%
%TD*%
%TA.AperFunction,ViaPad*%
%ADD16C,1.200000*%
%TD*%
%TA.AperFunction,Conductor*%
%ADD17C,0.500000*%
%TD*%
G04 APERTURE END LIST*
D10*
%TO.P,J2,1,1*%
%TO.N,Net-(J2-Pad1)*%
X142490000Y-84120000D03*
%TO.P,J2,2,2*%
%TO.N,GND*%
X142490000Y-82870000D03*
%TD*%
D11*
%TO.P,R5,1*%
%TO.N,/BAT_level*%
X149780000Y-86500000D03*
%TO.P,R5,2*%
%TO.N,GND*%
X152320000Y-86500000D03*
%TD*%
%TO.P,R4,1*%
%TO.N,/BAT+*%
X152220000Y-80000000D03*
%TO.P,R4,2*%
%TO.N,/BAT_level*%
X149680000Y-80000000D03*
%TD*%
%TO.P,R3,1*%
%TO.N,/BAT+*%
X152220000Y-83500000D03*
%TO.P,R3,2*%
%TO.N,Net-(D2-A)*%
X149680000Y-83500000D03*
%TD*%
D12*
%TO.P,J1,1,Pin_1*%
%TO.N,GND*%
X159150000Y-84750000D03*
D13*
%TO.P,J1,2,Pin_2*%
%TO.N,/Push*%
X159150000Y-82250000D03*
%TD*%
D14*
%TO.P,D2,1,K*%
%TO.N,GND*%
X140740000Y-75830000D03*
D15*
%TO.P,D2,2,A*%
%TO.N,Net-(D2-A)*%
X143280000Y-75830000D03*
%TD*%
D16*
%TO.N,/BAT+*%
X147500000Y-93500000D03*
%TD*%
D17*
%TO.N,/BAT+*%
X153700000Y-87300000D02*
X147500000Y-93500000D01*
X153700000Y-84980000D02*
X153700000Y-87300000D01*
X152220000Y-83500000D02*
X153700000Y-84980000D01*
%TO.N,/BAT_level*%
X150900000Y-81220000D02*
X149680000Y-80000000D01*
X150900000Y-85380000D02*
X150900000Y-81220000D01*
X149780000Y-86500000D02*
X150900000Y-85380000D01*
%TO.N,Net-(D2-A)*%
X143280000Y-77100000D02*
X143280000Y-75830000D01*
X149680000Y-83500000D02*
X143280000Y-77100000D01*
%TD*%
%TA.AperFunction,Conductor*%
%TO.N,GND*%
G36*
X146521241Y-72930185D02*
G01*
X146566996Y-72982989D01*
X146576940Y-73052147D01*
X146575819Y-73058692D01*
X146549500Y-73191004D01*
X146549500Y-73191007D01*
X146549500Y-73328993D01*
X146549500Y-73328995D01*
X146549499Y-73328995D01*
X146576418Y-73464322D01*
X146576421Y-73464332D01*
X146629221Y-73591804D01*
X146629228Y-73591817D01*
X146705885Y-73706541D01*
X146705888Y-73706545D01*
X146803454Y-73804111D01*
X146803458Y-73804114D01*
X146918182Y-73880771D01*
X146918195Y-73880778D01*
X147045003Y-73933303D01*
X147045672Y-73933580D01*
X147045676Y-73933580D01*
X147045677Y-73933581D01*
X147181004Y-73960500D01*
X147181007Y-73960500D01*
X147318995Y-73960500D01*
X147410041Y-73942389D01*
X147454328Y-73933580D01*
X147581811Y-73880775D01*
X147696542Y-73804114D01*
X147794114Y-73706542D01*
X147870775Y-73591811D01*
X147923580Y-73464328D01*
X147950500Y-73328993D01*
X147950500Y-73191007D01*
X147950500Y-73191004D01*
X147924181Y-73058692D01*
X147930408Y-72989100D01*
X147973271Y-72933923D01*
X148039161Y-72910678D01*
X148045798Y-72910500D01*
X153254202Y-72910500D01*
X153321241Y-72930185D01*
X153366996Y-72982989D01*
X153376940Y-73052147D01*
X153375819Y-73058692D01*
X153349500Y-73191004D01*
X153349500Y-73191007D01*
X153349500Y-73328993D01*
X153349500Y-73328995D01*
X153349499Y-73328995D01*
X153376418Y-73464322D01*
X153376421Y-73464332D01*
X153429221Y-73591804D01*
X153429228Y-73591817D01*
X153505885Y-73706541D01*
X153505888Y-73706545D01*
X153603454Y-73804111D01*
X153603458Y-73804114D01*
X153718182Y-73880771D01*
X153718195Y-73880778D01*
X153845003Y-73933303D01*
X153845672Y-73933580D01*
X153845676Y-73933580D01*
X153845677Y-73933581D01*
X153981004Y-73960500D01*
X153981007Y-73960500D01*
X154118995Y-73960500D01*
X154210041Y-73942389D01*
X154254328Y-73933580D01*
X154381811Y-73880775D01*
X154496542Y-73804114D01*
X154594114Y-73706542D01*
X154670775Y-73591811D01*
X154723580Y-73464328D01*
X154750500Y-73328993D01*
X154750500Y-73191007D01*
X154750500Y-73191004D01*
X154724181Y-73058692D01*
X154730408Y-72989100D01*
X154773271Y-72933923D01*
X154839161Y-72910678D01*
X154845798Y-72910500D01*
X156923576Y-72910500D01*
X156990615Y-72930185D01*
X157036370Y-72982989D01*
X157046314Y-73052147D01*
X157017289Y-73115703D01*
X156985577Y-73141887D01*
X156966193Y-73153077D01*
X156758148Y-73312718D01*
X156572718Y-73498148D01*
X156413075Y-73706196D01*
X156281958Y-73933299D01*
X156281953Y-73933309D01*
X156181605Y-74175571D01*
X156181602Y-74175581D01*
X156113730Y-74428885D01*
X156079500Y-74688872D01*
X156079500Y-74951127D01*
X156098571Y-75095974D01*
X156113730Y-75211116D01*
X156181602Y-75464418D01*
X156181605Y-75464428D01*
X156281953Y-75706690D01*
X156281958Y-75706700D01*
X156413075Y-75933803D01*
X156572718Y-76141851D01*
X156572726Y-76141860D01*
X156758140Y-76327274D01*
X156758148Y-76327281D01*
X156966196Y-76486924D01*
X157193299Y-76618041D01*
X157193309Y-76618046D01*
X157435571Y-76718394D01*
X157435581Y-76718398D01*
X157688884Y-76786270D01*
X157948880Y-76820500D01*
X157948887Y-76820500D01*
X158211113Y-76820500D01*
X158211120Y-76820500D01*
X158471116Y-76786270D01*
X158724419Y-76718398D01*
X158966697Y-76618043D01*
X159193803Y-76486924D01*
X159401851Y-76327282D01*
X159401855Y-76327277D01*
X159401860Y-76327274D01*
X159587274Y-76141860D01*
X159587277Y-76141855D01*
X159587282Y-76141851D01*
X159746924Y-75933803D01*
X159878043Y-75706697D01*
X159978398Y-75464419D01*
X160046270Y-75211116D01*
X160080500Y-74951120D01*
X160080500Y-74688880D01*
X160046270Y-74428884D01*
X159978398Y-74175581D01*
X159969500Y-74154099D01*
X159878046Y-73933309D01*
X159878041Y-73933299D01*
X159746924Y-73706196D01*
X159587281Y-73498148D01*
X159587274Y-73498140D01*
X159401860Y-73312726D01*
X159401851Y-73312718D01*
X159193806Y-73153077D01*
X159174423Y-73141887D01*
X159126208Y-73091320D01*
X159112986Y-73022712D01*
X159138954Y-72957848D01*
X159195868Y-72917320D01*
X159236424Y-72910500D01*
X160295500Y-72910500D01*
X160362539Y-72930185D01*
X160408294Y-72982989D01*
X160419500Y-73034500D01*
X160419500Y-81160242D01*
X160399815Y-81227281D01*
X160347011Y-81273036D01*
X160277853Y-81282980D01*
X160214297Y-81253955D01*
X160207819Y-81247923D01*
X160179786Y-81219890D01*
X160007820Y-81094951D01*
X159818414Y-80998444D01*
X159818413Y-80998443D01*
X159818412Y-80998443D01*
X159616243Y-80932754D01*
X159616241Y-80932753D01*
X159616240Y-80932753D01*
X159454957Y-80907208D01*
X159406287Y-80899500D01*
X158893713Y-80899500D01*
X158845042Y-80907208D01*
X158683760Y-80932753D01*
X158481585Y-80998444D01*
X158292179Y-81094951D01*
X158120213Y-81219890D01*
X157969890Y-81370213D01*
X157844951Y-81542179D01*
X157748444Y-81731585D01*
X157682753Y-81933760D01*
X157671999Y-82001659D01*
X157649500Y-82143713D01*
X157649500Y-82356287D01*
X157682754Y-82566243D01*
X157732039Y-82717927D01*
X157748444Y-82768414D01*
X157844951Y-82957820D01*
X157969890Y-83129786D01*
X158109068Y-83268964D01*
X158142553Y-83330287D01*
X158137569Y-83399979D01*
X158095697Y-83455912D01*
X158086484Y-83462183D01*
X157931659Y-83557680D01*
X157931655Y-83557683D01*
X157807684Y-83681654D01*
X157715643Y-83830875D01*
X157715641Y-83830880D01*
X157660494Y-83997302D01*
X157660493Y-83997309D01*
X157650000Y-84100013D01*
X157650000Y-84500000D01*
X158716988Y-84500000D01*
X158684075Y-84557007D01*
X158650000Y-84684174D01*
X158650000Y-84815826D01*
X158684075Y-84942993D01*
X158716988Y-85000000D01*
X157650001Y-85000000D01*
X157650001Y-85399986D01*
X157660494Y-85502697D01*
X157715641Y-85669119D01*
X157715643Y-85669124D01*
X157807684Y-85818345D01*
X157931654Y-85942315D01*
X158080875Y-86034356D01*
X158080880Y-86034358D01*
X158247302Y-86089505D01*
X158247309Y-86089506D01*
X158350019Y-86099999D01*
X158899999Y-86099999D01*
X158900000Y-86099998D01*
X158900000Y-85183012D01*
X158957007Y-85215925D01*
X159084174Y-85250000D01*
X159215826Y-85250000D01*
X159342993Y-85215925D01*
X159400000Y-85183012D01*
X159400000Y-86099999D01*
X159949972Y-86099999D01*
X159949986Y-86099998D01*
X160052697Y-86089505D01*
X160219119Y-86034358D01*
X160219126Y-86034355D01*
X160230402Y-86027400D01*
X160297794Y-86008959D01*
X160364458Y-86029881D01*
X160409228Y-86083522D01*
X160419500Y-86132938D01*
X160419500Y-107485500D01*
X160399815Y-107552539D01*
X160347011Y-107598294D01*
X160295500Y-107609500D01*
X134654500Y-107609500D01*
X134587461Y-107589815D01*
X134541706Y-107537011D01*
X134530500Y-107485500D01*
X134530500Y-105887858D01*
X134550185Y-105820819D01*
X134602989Y-105775064D01*
X134672147Y-105765120D01*
X134735703Y-105794145D01*
X134761887Y-105825858D01*
X134853075Y-105983803D01*
X135012718Y-106191851D01*
X135012726Y-106191860D01*
X135198140Y-106377274D01*
X135198148Y-106377281D01*
X135406196Y-106536924D01*
X135633299Y-106668041D01*
X135633309Y-106668046D01*
X135875571Y-106768394D01*
X135875581Y-106768398D01*
X136128884Y-106836270D01*
X136388880Y-106870500D01*
X136388887Y-106870500D01*
X136651113Y-106870500D01*
X136651120Y-106870500D01*
X136911116Y-106836270D01*
X137164419Y-106768398D01*
X137406697Y-106668043D01*
X137633803Y-106536924D01*
X137841851Y-106377282D01*
X137841855Y-106377277D01*
X137841860Y-106377274D01*
X138027274Y-106191860D01*
X138027277Y-106191855D01*
X138027282Y-106191851D01*
X138186924Y-105983803D01*
X138318043Y-105756697D01*
X138418398Y-105514419D01*
X138486270Y-105261116D01*
X138520500Y-105001120D01*
X138520500Y-104738880D01*
X138486270Y-104478884D01*
X138418398Y-104225581D01*
X138418394Y-104225571D01*
X138318046Y-103983309D01*
X138318041Y-103983299D01*
X138186924Y-103756196D01*
X138027281Y-103548148D01*
X138027274Y-103548140D01*
X137841860Y-103362726D01*
X137841851Y-103362718D01*
X137633803Y-103203075D01*
X137406700Y-103071958D01*
X137406690Y-103071953D01*
X137164428Y-102971605D01*
X137164421Y-102971603D01*
X137164419Y-102971602D01*
X136911116Y-102903730D01*
X136853339Y-102896123D01*
X136651127Y-102869500D01*
X136651120Y-102869500D01*
X136388880Y-102869500D01*
X136388872Y-102869500D01*
X136157772Y-102899926D01*
X136128884Y-102903730D01*
X135875581Y-102971602D01*
X135875571Y-102971605D01*
X135633309Y-103071953D01*
X135633299Y-103071958D01*
X135406196Y-103203075D01*
X135198148Y-103362718D01*
X135012718Y-103548148D01*
X134853075Y-103756196D01*
X134761887Y-103914141D01*
X134711320Y-103962356D01*
X134642713Y-103975580D01*
X134577848Y-103949612D01*
X134537320Y-103892698D01*
X134530500Y-103852141D01*
X134530500Y-84020666D01*
X141481500Y-84020666D01*
X141481500Y-84219333D01*
X141520254Y-84414161D01*
X141520256Y-84414169D01*
X141596277Y-84597701D01*
X141596282Y-84597710D01*
X141706646Y-84762880D01*
X141706649Y-84762884D01*
X141847115Y-84903350D01*
X141847119Y-84903353D01*
X142012289Y-85013717D01*
X142012295Y-85013720D01*
X142012296Y-85013721D01*
X142195831Y-85089744D01*
X142390666Y-85128499D01*
X142390670Y-85128500D01*
X142390671Y-85128500D01*
X142589330Y-85128500D01*
X142589331Y-85128499D01*
X142784169Y-85089744D01*
X142967704Y-85013721D01*
X143132881Y-84903353D01*
X143273353Y-84762881D01*
X143383721Y-84597704D01*
X143459744Y-84414169D01*
X143498500Y-84219329D01*
X143498500Y-84020671D01*
X143459744Y-83825831D01*
X143383721Y-83642296D01*
X143383720Y-83642295D01*
X143383716Y-83642287D01*
X143331032Y-83563442D01*
X143310153Y-83496765D01*
X143328637Y-83429384D01*
X143331032Y-83425658D01*
X143383273Y-83347475D01*
X143383279Y-83347464D01*
X143459262Y-83164023D01*
X143459264Y-83164015D01*
X143497999Y-82969283D01*
X143498000Y-82969281D01*
X143498000Y-82770718D01*
X143497999Y-82770716D01*
X143459264Y-82575984D01*
X143459262Y-82575976D01*
X143383278Y-82392534D01*
X143383275Y-82392528D01*
X143358340Y-82355212D01*
X143358339Y-82355211D01*
X142784855Y-82928696D01*
X142790000Y-82909496D01*
X142790000Y-82830504D01*
X142769556Y-82754204D01*
X142730060Y-82685795D01*
X142674205Y-82629940D01*
X142605796Y-82590444D01*
X142529496Y-82570000D01*
X142450504Y-82570000D01*
X142374204Y-82590444D01*
X142305795Y-82629940D01*
X142249940Y-82685795D01*
X142210444Y-82754204D01*
X142190000Y-82830504D01*
X142190000Y-82909496D01*
X142195145Y-82928698D01*
X141621659Y-82355212D01*
X141621657Y-82355212D01*
X141596722Y-82392530D01*
X141520737Y-82575976D01*
X141520735Y-82575984D01*
X141482000Y-82770716D01*
X141482000Y-82969283D01*
X141520735Y-83164015D01*
X141520737Y-83164023D01*
X141596721Y-83347466D01*
X141648968Y-83425659D01*
X141669846Y-83492337D01*
X141651361Y-83559717D01*
X141648968Y-83563441D01*
X141596278Y-83642296D01*
X141520256Y-83825830D01*
X141520254Y-83825838D01*
X141481500Y-84020666D01*
X134530500Y-84020666D01*
X134530500Y-82001657D01*
X141975212Y-82001657D01*
X141975212Y-82001659D01*
X142490000Y-82516446D01*
X142490001Y-82516446D01*
X143004786Y-82001659D01*
X142967462Y-81976719D01*
X142784023Y-81900737D01*
X142784015Y-81900735D01*
X142589282Y-81862000D01*
X142390718Y-81862000D01*
X142195984Y-81900735D01*
X142195976Y-81900737D01*
X142012530Y-81976722D01*
X141975212Y-82001657D01*
X134530500Y-82001657D01*
X134530500Y-76009028D01*
X134550185Y-75941989D01*
X134602989Y-75896234D01*
X134672147Y-75886290D01*
X134735703Y-75915315D01*
X134752876Y-75933541D01*
X134753072Y-75933797D01*
X134753076Y-75933803D01*
X134912718Y-76141851D01*
X134912722Y-76141855D01*
X134912726Y-76141860D01*
X135098140Y-76327274D01*
X135098148Y-76327281D01*
X135306196Y-76486924D01*
X135533299Y-76618041D01*
X135533309Y-76618046D01*
X135775571Y-76718394D01*
X135775581Y-76718398D01*
X136028884Y-76786270D01*
X136288880Y-76820500D01*
X136288887Y-76820500D01*
X136551113Y-76820500D01*
X136551120Y-76820500D01*
X136811116Y-76786270D01*
X137064419Y-76718398D01*
X137306697Y-76618043D01*
X137533803Y-76486924D01*
X137741851Y-76327282D01*
X137741855Y-76327277D01*
X137741860Y-76327274D01*
X137927274Y-76141860D01*
X137927277Y-76141855D01*
X137927282Y-76141851D01*
X138081999Y-75940222D01*
X138086924Y-75933803D01*
X138181059Y-75770756D01*
X138218043Y-75706697D01*
X138318398Y-75464419D01*
X138386270Y-75211116D01*
X138420500Y-74951120D01*
X138420500Y-74882155D01*
X139340000Y-74882155D01*
X139340000Y-75580000D01*
X140364722Y-75580000D01*
X140320667Y-75656306D01*
X140290000Y-75770756D01*
X140290000Y-75889244D01*
X140320667Y-76003694D01*
X140364722Y-76080000D01*
X139340000Y-76080000D01*
X139340000Y-76777844D01*
X139346401Y-76837372D01*
X139346403Y-76837379D01*
X139396645Y-76972086D01*
X139396649Y-76972093D01*
X139482809Y-77087187D01*
X139482812Y-77087190D01*
X139597906Y-77173350D01*
X139597913Y-77173354D01*
X139732620Y-77223596D01*
X139732627Y-77223598D01*
X139792155Y-77229999D01*
X139792172Y-77230000D01*
X140490000Y-77230000D01*
X140490000Y-76205277D01*
X140566306Y-76249333D01*
X140680756Y-76280000D01*
X140799244Y-76280000D01*
X140913694Y-76249333D01*
X140990000Y-76205277D01*
X140990000Y-77230000D01*
X141687828Y-77230000D01*
X141687844Y-77229999D01*
X141747372Y-77223598D01*
X141747379Y-77223596D01*
X141882086Y-77173354D01*
X141882093Y-77173350D01*
X141997187Y-77087190D01*
X141997190Y-77087187D01*
X142083350Y-76972093D01*
X142083354Y-76972086D01*
X142113213Y-76892031D01*
X142130538Y-76868886D01*
X142145443Y-76844105D01*
X142151222Y-76841255D01*
X142155084Y-76836097D01*
X142182177Y-76825991D01*
X142208109Y-76813205D01*
X142214510Y-76813931D01*
X142220548Y-76811680D01*
X142248805Y-76817826D01*
X142277532Y-76821089D01*
X142284095Y-76825503D01*
X142288821Y-76826531D01*
X142307777Y-76839280D01*
X142312640Y-76843247D01*
X142367635Y-76898242D01*
X142481190Y-76980744D01*
X142483882Y-76982940D01*
X142501751Y-77009008D01*
X142521051Y-77034035D01*
X142521859Y-77038340D01*
X142523387Y-77040569D01*
X142523595Y-77047584D01*
X142529500Y-77079024D01*
X142529500Y-77173918D01*
X142529500Y-77173920D01*
X142529499Y-77173920D01*
X142558340Y-77318907D01*
X142558343Y-77318917D01*
X142614914Y-77455492D01*
X142647812Y-77504727D01*
X142647813Y-77504730D01*
X142697046Y-77578414D01*
X142697052Y-77578421D01*
X148443181Y-83324549D01*
X148476666Y-83385872D01*
X148479500Y-83412230D01*
X148479500Y-83594486D01*
X148509059Y-83781118D01*
X148567454Y-83960836D01*
X148597942Y-84020671D01*
X148653240Y-84129199D01*
X148764310Y-84282073D01*
X148897927Y-84415690D01*
X149050801Y-84526760D01*
X149110500Y-84557178D01*
X149219163Y-84612545D01*
X149219165Y-84612545D01*
X149219168Y-84612547D01*
X149258024Y-84625172D01*
X149398881Y-84670940D01*
X149585514Y-84700500D01*
X149585519Y-84700500D01*
X149774486Y-84700500D01*
X149864963Y-84686169D01*
X149961118Y-84670940D01*
X149987179Y-84662471D01*
X150015300Y-84661667D01*
X150043147Y-84657664D01*
X150049756Y-84660682D01*
X150057020Y-84660475D01*
X150081111Y-84675001D01*
X150106703Y-84686689D01*
X150110631Y-84692801D01*
X150116854Y-84696554D01*
X150129267Y-84721799D01*
X150144477Y-84745467D01*
X150145953Y-84755736D01*
X150147683Y-84759254D01*
X150149500Y-84780402D01*
X150149500Y-85017770D01*
X150129815Y-85084809D01*
X150113181Y-85105451D01*
X149955451Y-85263181D01*
X149894128Y-85296666D01*
X149867770Y-85299500D01*
X149685514Y-85299500D01*
X149498881Y-85329059D01*
X149319163Y-85387454D01*
X149150800Y-85473240D01*
X149110257Y-85502697D01*
X148997927Y-85584310D01*
X148997925Y-85584312D01*
X148997924Y-85584312D01*
X148864312Y-85717924D01*
X148864312Y-85717925D01*
X148864310Y-85717927D01*
X148851546Y-85735495D01*
X148753240Y-85870800D01*
X148667454Y-86039163D01*
X148609059Y-86218881D01*
X148579500Y-86405513D01*
X148579500Y-86594486D01*
X148609059Y-86781118D01*
X148667454Y-86960836D01*
X148753104Y-87128933D01*
X148753240Y-87129199D01*
X148864310Y-87282073D01*
X148997927Y-87415690D01*
X149150801Y-87526760D01*
X149230347Y-87567290D01*
X149319163Y-87612545D01*
X149319165Y-87612545D01*
X149319168Y-87612547D01*
X149415497Y-87643846D01*
X149498881Y-87670940D01*
X149685514Y-87700500D01*
X149685519Y-87700500D01*
X149874486Y-87700500D01*
X150061118Y-87670940D01*
X150082089Y-87664126D01*
X150240832Y-87612547D01*
X150409199Y-87526760D01*
X150562073Y-87415690D01*
X150695690Y-87282073D01*
X150806760Y-87129199D01*
X150892547Y-86960832D01*
X150932332Y-86838385D01*
X150971768Y-86780713D01*
X151036127Y-86753514D01*
X151104973Y-86765429D01*
X151156449Y-86812673D01*
X151168193Y-86838388D01*
X151207914Y-86960637D01*
X151293666Y-87128933D01*
X151312116Y-87154328D01*
X151970000Y-86496444D01*
X151970000Y-86546078D01*
X151993852Y-86635095D01*
X152039930Y-86714905D01*
X152105095Y-86780070D01*
X152184905Y-86826148D01*
X152273922Y-86850000D01*
X152323552Y-86850000D01*
X151665669Y-87507882D01*
X151665670Y-87507883D01*
X151691059Y-87526329D01*
X151859364Y-87612086D01*
X152019529Y-87664126D01*
X152077205Y-87703563D01*
X152104404Y-87767921D01*
X152092490Y-87836768D01*
X152068893Y-87869738D01*
X147575451Y-92363181D01*
X147514128Y-92396666D01*
X147487770Y-92399500D01*
X147413389Y-92399500D01*
X147373728Y-92405781D01*
X147242302Y-92426597D01*
X147077552Y-92480128D01*
X146923211Y-92558768D01*
X146843256Y-92616859D01*
X146783072Y-92660586D01*
X146783070Y-92660588D01*
X146783069Y-92660588D01*
X146660588Y-92783069D01*
X146660588Y-92783070D01*
X146660586Y-92783072D01*
X146616859Y-92843256D01*
X146558768Y-92923211D01*
X146480128Y-93077552D01*
X146426597Y-93242302D01*
X146399500Y-93413389D01*
X146399500Y-93586611D01*
X146426598Y-93757701D01*
X146480127Y-93922445D01*
X146558768Y-94076788D01*
X146660586Y-94216928D01*
X146783072Y-94339414D01*
X146923212Y-94441232D01*
X147077555Y-94519873D01*
X147242299Y-94573402D01*
X147413389Y-94600500D01*
X147413390Y-94600500D01*
X147586610Y-94600500D01*
X147586611Y-94600500D01*
X147757701Y-94573402D01*
X147922445Y-94519873D01*
X148076788Y-94441232D01*
X148216928Y-94339414D01*
X148339414Y-94216928D01*
X148441232Y-94076788D01*
X148519873Y-93922445D01*
X148573402Y-93757701D01*
X148600500Y-93586611D01*
X148600500Y-93512229D01*
X148620185Y-93445190D01*
X148636819Y-93424548D01*
X154282948Y-87778419D01*
X154282951Y-87778416D01*
X154365084Y-87655495D01*
X154421658Y-87518913D01*
X154442191Y-87415690D01*
X154450500Y-87373920D01*
X154450500Y-84906079D01*
X154421659Y-84761092D01*
X154421658Y-84761091D01*
X154421658Y-84761087D01*
X154411606Y-84736819D01*
X154365086Y-84624509D01*
X154365085Y-84624507D01*
X154364746Y-84624000D01*
X154332186Y-84575270D01*
X154320098Y-84557178D01*
X154282956Y-84501589D01*
X154282952Y-84501584D01*
X153456819Y-83675451D01*
X153423334Y-83614128D01*
X153420500Y-83587770D01*
X153420500Y-83405513D01*
X153390940Y-83218881D01*
X153332545Y-83039163D01*
X153246759Y-82870800D01*
X153217482Y-82830504D01*
X153135690Y-82717927D01*
X153002073Y-82584310D01*
X152849199Y-82473240D01*
X152680836Y-82387454D01*
X152501118Y-82329059D01*
X152314486Y-82299500D01*
X152314481Y-82299500D01*
X152125519Y-82299500D01*
X152125514Y-82299500D01*
X151938880Y-82329060D01*
X151938877Y-82329060D01*
X151812818Y-82370020D01*
X151742977Y-82372015D01*
X151683144Y-82335935D01*
X151652316Y-82273234D01*
X151650500Y-82252089D01*
X151650500Y-81247910D01*
X151670185Y-81180871D01*
X151722989Y-81135116D01*
X151792147Y-81125172D01*
X151812814Y-81129978D01*
X151880822Y-81152075D01*
X151938881Y-81170940D01*
X152125514Y-81200500D01*
X152125519Y-81200500D01*
X152314486Y-81200500D01*
X152501118Y-81170940D01*
X152680832Y-81112547D01*
X152849199Y-81026760D01*
X153002073Y-80915690D01*
X153135690Y-80782073D01*
X153246760Y-80629199D01*
X153332547Y-80460832D01*
X153390940Y-80281118D01*
X153420500Y-80094486D01*
X153420500Y-79905513D01*
X153390940Y-79718881D01*
X153332545Y-79539163D01*
X153246759Y-79370800D01*
X153135690Y-79217927D01*
X153002073Y-79084310D01*
X152849199Y-78973240D01*
X152680836Y-78887454D01*
X152501118Y-78829059D01*
X152314486Y-78799500D01*
X152314481Y-78799500D01*
X152125519Y-78799500D01*
X152125514Y-78799500D01*
X151938881Y-78829059D01*
X151759163Y-78887454D01*
X151590800Y-78973240D01*
X151503579Y-79036610D01*
X151437927Y-79084310D01*
X151437925Y-79084312D01*
X151437924Y-79084312D01*
X151304312Y-79217924D01*
X151304312Y-79217925D01*
X151304310Y-79217927D01*
X151256610Y-79283579D01*
X151193240Y-79370800D01*
X151107454Y-79539163D01*
X151067931Y-79660803D01*
X151028493Y-79718478D01*
X150964134Y-79745676D01*
X150895288Y-79733761D01*
X150843812Y-79686516D01*
X150832069Y-79660803D01*
X150792545Y-79539163D01*
X150706759Y-79370800D01*
X150595690Y-79217927D01*
X150462073Y-79084310D01*
X150309199Y-78973240D01*
X150140836Y-78887454D01*
X149961118Y-78829059D01*
X149774486Y-78799500D01*
X149774481Y-78799500D01*
X149585519Y-78799500D01*
X149585514Y-78799500D01*
X149398881Y-78829059D01*
X149219163Y-78887454D01*
X149050800Y-78973240D01*
X148963579Y-79036610D01*
X148897927Y-79084310D01*
X148897925Y-79084312D01*
X148897924Y-79084312D01*
X148764312Y-79217924D01*
X148764312Y-79217925D01*
X148764310Y-79217927D01*
X148716610Y-79283579D01*
X148653240Y-79370800D01*
X148567454Y-79539163D01*
X148509059Y-79718881D01*
X148479500Y-79905513D01*
X148479500Y-80094486D01*
X148509059Y-80281118D01*
X148567454Y-80460836D01*
X148653240Y-80629199D01*
X148764310Y-80782073D01*
X148897927Y-80915690D01*
X149050801Y-81026760D01*
X149090821Y-81047151D01*
X149219163Y-81112545D01*
X149219165Y-81112545D01*
X149219168Y-81112547D01*
X149258024Y-81125172D01*
X149398881Y-81170940D01*
X149585514Y-81200500D01*
X149767771Y-81200500D01*
X149834810Y-81220185D01*
X149855452Y-81236819D01*
X150113181Y-81494548D01*
X150146666Y-81555871D01*
X150149500Y-81582229D01*
X150149500Y-82219597D01*
X150129815Y-82286636D01*
X150077011Y-82332391D01*
X150007853Y-82342335D01*
X149987182Y-82337528D01*
X149961121Y-82329060D01*
X149774486Y-82299500D01*
X149774481Y-82299500D01*
X149592230Y-82299500D01*
X149525191Y-82279815D01*
X149504549Y-82263181D01*
X144253668Y-77012300D01*
X144220183Y-76950977D01*
X144225167Y-76881285D01*
X144253664Y-76836942D01*
X144348242Y-76742365D01*
X144477815Y-76564022D01*
X144577895Y-76367606D01*
X144646015Y-76157951D01*
X144680500Y-75940222D01*
X144680500Y-75719778D01*
X144646015Y-75502049D01*
X144611955Y-75397221D01*
X144577896Y-75292396D01*
X144577895Y-75292393D01*
X144536480Y-75211114D01*
X144477815Y-75095978D01*
X144461260Y-75073192D01*
X144348247Y-74917641D01*
X144348243Y-74917636D01*
X144192363Y-74761756D01*
X144192358Y-74761752D01*
X144014025Y-74632187D01*
X144014024Y-74632186D01*
X144014022Y-74632185D01*
X143951096Y-74600122D01*
X143817606Y-74532104D01*
X143817603Y-74532103D01*
X143607952Y-74463985D01*
X143499086Y-74446742D01*
X143390222Y-74429500D01*
X143169778Y-74429500D01*
X143097201Y-74440995D01*
X142952047Y-74463985D01*
X142742396Y-74532103D01*
X142742393Y-74532104D01*
X142545974Y-74632187D01*
X142367641Y-74761752D01*
X142367636Y-74761756D01*
X142317075Y-74812317D01*
X142255752Y-74845801D01*
X142186060Y-74840816D01*
X142130127Y-74798945D01*
X142113213Y-74767968D01*
X142083354Y-74687913D01*
X142083350Y-74687906D01*
X141997190Y-74572812D01*
X141997187Y-74572809D01*
X141882093Y-74486649D01*
X141882086Y-74486645D01*
X141747379Y-74436403D01*
X141747372Y-74436401D01*
X141687844Y-74430000D01*
X140990000Y-74430000D01*
X140990000Y-75454722D01*
X140913694Y-75410667D01*
X140799244Y-75380000D01*
X140680756Y-75380000D01*
X140566306Y-75410667D01*
X140490000Y-75454722D01*
X140490000Y-74430000D01*
X139792155Y-74430000D01*
X139732627Y-74436401D01*
X139732620Y-74436403D01*
X139597913Y-74486645D01*
X139597906Y-74486649D01*
X139482812Y-74572809D01*
X139482809Y-74572812D01*
X139396649Y-74687906D01*
X139396645Y-74687913D01*
X139346403Y-74822620D01*
X139346401Y-74822627D01*
X139340000Y-74882155D01*
X138420500Y-74882155D01*
X138420500Y-74688880D01*
X138386270Y-74428884D01*
X138318398Y-74175581D01*
X138309500Y-74154099D01*
X138218046Y-73933309D01*
X138218041Y-73933299D01*
X138086924Y-73706196D01*
X137927281Y-73498148D01*
X137927274Y-73498140D01*
X137741860Y-73312726D01*
X137741851Y-73312718D01*
X137533806Y-73153077D01*
X137514423Y-73141887D01*
X137466208Y-73091320D01*
X137452986Y-73022712D01*
X137478954Y-72957848D01*
X137535868Y-72917320D01*
X137576424Y-72910500D01*
X146454202Y-72910500D01*
X146521241Y-72930185D01*
G37*
%TD.AperFunction*%
%TD*%
M02*
